/* XPM */
static char *c083ee1b3afe48c8fbb5f4e4b41b4b24rZ2iK7MIn83lWDIe[] = {
/* columns rows colors chars-per-pixel */
"64 64 256 2 ",
"   c #010101",
".  c #0B0202",
"X  c #020B02",
"o  c #0B0B02",
"O  c #01020B",
"+  c #0B030B",
"@  c #010C0B",
"#  c #0B0A0B",
"$  c #120302",
"%  c #12030C",
"&  c #130C0A",
"*  c #021201",
"=  c #05120B",
"-  c #17120A",
";  c #030313",
":  c #0C0313",
">  c #010B13",
",  c #0C0A13",
"<  c #06081B",
"1  c #130213",
"2  c #130B12",
"3  c #14021A",
"4  c #1A011B",
"5  c #170818",
"6  c #011314",
"7  c #051418",
"8  c #001A1C",
"9  c #131719",
"0  c #26031C",
"q  c #300012",
"w  c #1A231E",
"e  c #160524",
"r  c #031423",
"t  c #27022A",
"y  c #2C0D2D",
"u  c #012321",
"i  c #152023",
"p  c #2B2825",
"a  c #2D3227",
"s  c #672667",
"d  c #6E236D",
"f  c #782877",
"g  c #763874",
"h  c #2E7B7C",
"j  c #724B72",
"k  c #7F437C",
"l  c #497979",
"z  c #89037C",
"x  c #83397B",
"c  c #82617D",
"v  c #7D3987",
"b  c #377E81",
"n  c #646D85",
"m  c #823B83",
"M  c #AB06B0",
"N  c #B602B7",
"B  c #9C31A9",
"V  c #AF2EAD",
"C  c #C831BC",
"Z  c #88478A",
"A  c #895389",
"S  c #8F748E",
"D  c #9E5AA7",
"F  c #BA5AAD",
"G  c #B04FB0",
"H  c #BB5AB8",
"J  c #9D75AC",
"K  c #A864A8",
"L  c #AD6CB2",
"P  c #B765B9",
"I  c #BC74B2",
"U  c #C456BC",
"Y  c #C667BB",
"T  c #D118CE",
"R  c #E31DCF",
"E  c #CC32CD",
"W  c #D537CB",
"Q  c #D427D5",
"!  c #D937D8",
"~  c #E93ADB",
"^  c #E83AE3",
"/  c #BA48CD",
"(  c #BD58C6",
")  c #B966C5",
"_  c #B970C9",
"`  c #C649C4",
"'  c #D64ACC",
"]  c #C759C9",
"[  c #D846D6",
"{  c #C854D5",
"}  c #D053D1",
"|  c #D854D7",
" . c #E64CD6",
".. c #E55BDC",
"X. c #C866C7",
"o. c #D669CB",
"O. c #C778C7",
"+. c #D475CC",
"@. c #C967D5",
"#. c #D968DA",
"$. c #C674D3",
"%. c #D775D6",
"&. c #E86ADC",
"*. c #E377DB",
"=. c #DC4BE7",
"-. c #D851E3",
";. c #EA4AEA",
":. c #F54DE9",
">. c #E857E8",
",. c #F759EB",
"<. c #E64DF4",
"1. c #F64AF2",
"2. c #E957F6",
"3. c #F557F6",
"4. c #DA76E5",
"5. c #E768E7",
"6. c #F765E6",
"7. c #E775E9",
"8. c #EB6AF5",
"9. c #F864F8",
"0. c #EB75F7",
"q. c #FB75F0",
"w. c #398988",
"e. c #3C8F92",
"r. c #3CAEAA",
"t. c #458985",
"y. c #448D8B",
"u. c #548B87",
"i. c #43918D",
"p. c #4A928D",
"a. c #488C97",
"s. c #479595",
"d. c #549093",
"f. c #569995",
"g. c #6B9A9A",
"h. c #4FAFB4",
"j. c #55DFD0",
"k. c #6CCCCB",
"l. c #76C9C5",
"z. c #6DEADD",
"x. c #57EEEE",
"c. c #48F8EB",
"v. c #56F6EB",
"b. c #4BFBFC",
"n. c #54F5F4",
"m. c #54FCF4",
"M. c #5CFBF4",
"N. c #56F6FA",
"B. c #5BF5FB",
"V. c #54FCFB",
"C. c #5BFDFD",
"Z. c #6CEEEF",
"A. c #63F9EB",
"S. c #66F6FA",
"D. c #63FCFF",
"F. c #79F8F7",
"G. c #888687",
"H. c #948A8A",
"J. c #94938E",
"K. c #8E8D92",
"L. c #938B93",
"P. c #899699",
"I. c #969497",
"U. c #9A9495",
"Y. c #A2899D",
"T. c #B689B7",
"R. c #83A3A6",
"E. c #ACB8B0",
"W. c #B9BABC",
"Q. c #C182B6",
"!. c #C9BEB9",
"~. c #BDC3B6",
"^. c #BCB1C3",
"/. c #C688CA",
"(. c #CA93C7",
"). c #C98DD2",
"_. c #D98AD8",
"`. c #D994D9",
"'. c #E490D9",
"]. c #E593DB",
"[. c #D1ABD0",
"{. c #D9B4D8",
"}. c #DD85E4",
"|. c #DA95E3",
" X c #E88AE7",
".X c #F287EA",
"XX c #E899E5",
"oX c #F593EA",
"OX c #F385F5",
"+X c #EC93F0",
"@X c #FA97F9",
"#X c #D9ADE2",
"$X c #EDB5EB",
"%X c #FCA9FE",
"&X c #FBB7FC",
"*X c #FFBCFD",
"=X c #8CD3D0",
"-X c #BEC9C1",
";X c #8FE7DE",
":X c #8DF0F1",
">X c #89FAF7",
",X c #99FAF8",
"<X c #A6EFF0",
"1X c #CBCAC9",
"2X c #D7CAC9",
"3X c #CAD6C9",
"4X c #DBD3CE",
"5X c #D8D8CB",
"6X c #CCC7D1",
"7X c #D7CBD6",
"8X c #C8D7D6",
"9X c #D7D7D4",
"0X c #DBD4D4",
"qX c #D4DBD4",
"wX c #DDD3DC",
"eX c #D5DCDB",
"rX c #DCDADA",
"tX c #E1D1CE",
"yX c #E2C6DA",
"uX c #E2D7D9",
"iX c #D6E3D9",
"pX c #EAF0DF",
"aX c #D8CBE4",
"sX c #D8D7E5",
"dX c #E5C8E8",
"fX c #E6D6E5",
"gX c #EFC8F0",
"hX c #F4C8F5",
"jX c #FEC4FF",
"kX c #FFCCFF",
"lX c #F7D6F8",
"zX c #FED3FF",
"xX c #FFDDFF",
"cX c #DEF0E5",
"vX c #E8E9E8",
"bX c #F7ECEC",
"nX c #EDF2EA",
"mX c #EBFBE9",
"MX c #F7F7EA",
"NX c #FEFDEC",
"BX c #EAE9F4",
"VX c #F6EAF5",
"CX c #FCEDF4",
"ZX c #FFE4FF",
"AX c #F4ECFD",
"SX c #FEECFE",
"DX c #EDFBF4",
"FX c #ECF7FA",
"GX c #F5F4F4",
"HX c #FDF4F4",
"JX c #F4FDF4",
"KX c #FEFDF4",
"LX c #F5F4FD",
"PX c #FEF4FE",
"IX c #F4FDFD",
"UX c #FEFCFE",
/* pixels */
"V.b.b.V.n.x.c.v.h.w.a.a.a.a.s.s.e.s.y.y.p.y.y.e.e.a.e.a.i.p.p.y.p.t.f.e.w.s.e.e.a.e.t.p.t.w.s.e.s.e.a.a.d.a.h j.j.v.N.N.V.b.b.b.",
"m.V.b.C.B.B.B.z.h.                                                                                            h.z.S.B.N.C.n.m.V.",
"M.n.m.m.B.S.S.F.k.  X . $ . , , X #     , + % . . X X X X o   % $ . X     *     . . O , O O @ X X - O $ $     k.>XS.S.B.n.v.m.m.",
"M.M.C.C.S.S.S.:Xk.  X .       #   X   X @ O 3 : O X X * X   X O     X X X * X . # 1 O ;         .     . . X   l.:XS.S.B.B.C.M.M.",
"x.n.D.F.F.:X,X,Xl.  *   . -       X * * O < e e e 4   * * * O O O   = * X   : e e e 3 O   = =     o o .   *   =X,X:X:XF.F.D.n.n.",
"b.V.B.S.h.a.d.b R.8XeXeXW.  . + % 3X3X5XfXO.G ] G _ hX7X3X8XO < ; @ 8X8XeXhXO.G H G T.lXqX3X3X.       W.eX8X8XR.n n b h.S.S.V.b.",
"b.D.B.F.a.O     I.UXIXUXeXO O 1 + KXpXMXSX+X2.9.3.@XSXUXIXIX< < ; ; IXUXPXSX@X3.9.3.+XSXHXcXKX  1   O eXUXIXUXP.;   O d.>XB.C.b.",
"b.B.x.,Xf.; <   I.UXIXUXrX. % :   IXvXVXxXoX<.3.;.OXxXPXUXIX> O O O IXUXSXxXOX<.3.>.oXxXCXvXIXO 5 # . 0XUXIXUXI.  ; O f.,Xv.N.b.",
"A.A.v.>Xf.  >   P.UXJXUX0X. & O > IXUXPXZX.X' [ E }.xXSXUXUXX     O IXUXPXxX}.E [ [  XxXPXUXIX; ; 2 . uXUXDXUXP.  <   f.>Xz.z.m.",
"z.,X;X=Xl   t   P.UXIXUXuX. $ O < AXxXzX*X.X] @.$.`.xXSXUXUX. o .   KXUXSXZX|.@.@.#.OX*XzXZXAX< O . $ tXUXIXIXJ.  y . u.;X;X,Xz.",
"t.f.u.l A P U z T.PXHXNX4X. + O e #XXX+XOX@X%X&XdXdXPXPXUXUX$ . . . UXUXPXSXaXgX*X%X@XOXoXXXXXe < : + uXNXGXPXT.z U F j l u.f.w.",
"        U 6.6.E '.SXHXKXqXO O 1 t @.[ ! Q %XSXPXFXFXIXLXPXSX. o . . HXUXIXIXFXIXPXxX%XE [ ' @.y e O . 9XKXHXPX_.C 6.&.F .       ",
"@ % +   U 6.,.E '.SXUXUX9X  : : y ..:.;.T &XZXHXDXmXIXLXUXSX. o o   HXUXLXJXJXJXUXZX%XR  . .#.y 3 < O 9XUXUXSX'.W 6.6.Y   % 2 @ ",
"> # +   H ..>.V ).ZXbXUX9XO 3 1 t #.,.1.Q %XxXNXmXmXIXUXUXPX        PXUXUXLXmXmXbXxX%XT :.,.#.t : 3 ; 0XUXnXSX).N | | H   O + > ",
"> + O   P @.( B ).SXnXUX9XO ; 5 1 X.U U C &XPXKXNXmXUXPXUXAX9 X   9 AXPXPXUXMXNXKXSX&XV ` U o.0 5 ; O 0XUXGXAX).B ] $.L   O , r ",
"< 1 #   dXZXSXZXSXUXHXKX2XX X   & SXZXPXxXSXLXnXJXrX  +   # IXUXKXGX+   :   iXMXnXUXPXxXSXZXSX. .   @ 2XHXUXUXSXZXZXxXaX  + + < ",
"7 :     fXPXSXPXSXAXHXKX5X= X   X UXUXUXPXLXIXIXUXeX        UXUXUXUX        eXUXKXIXUXPXUXUXUX  X X = tXHXHXIXSXSXPXUXsX    1 < ",
"> ,     sXPXPXPXUXLXGXKX4X=   o X UXLXUXGXPXUXUXUXsX        IXIXIXUX    ,   sXUXPXUXPXAXPXUXUXX X   , 9XKXGXIXLXPXPXUXsX    , 6 ",
"6 >     wXPXPXSXSXUXGXUX4X@   o . IXIXGXCXZXPXPXUXaX        IXIXDXIX.       aXPXPXPXCXSXPXLXUX      @ 5XUXIXUXAXZXSXPXuX    @ 6 ",
"6 @     {.kX&X$XhXUXIXUX4X  O     UXUXPXPX2X7XfXaX^.d Z x x PXUXLXUXg m Z s ^.dXdX2X7XPXUXLXUX  X @   0XUXLXUXlX$X&XzX{.    @ 8 ",
"7 O #   O.%.5.} |.SXHXUXtX  , # @ IXIXLXfXc * X   j $..X*.+.xXPXCXSXX.*..X$.j       S vXLXIXUX@ 9 #   uXUXHXSX|.} 5.%.Y   #   > ",
"6   .   U ,.^ ! }.xXUXHX2X      O IXUXUXUXI.  X   g %.>.W ' zXSXPXjX'  .| *.x   o   I.UXUXIXIXO O   X 2XHXUXxX X[ ^ 9.X.  2 O 8 ",
"8 # &   X.,.1.Q _.SXUXHXtX  # 2 2 UXIXGXUXI.  o   k 7.6. .' zXSXSXzX' ..5.*.k   o   I.UXFXIXUX, ,     tXHXUXSX}.T 1.9.X.  2 O 6 ",
"6   &   P W ! N _.UXHXHX2X        DXIXUXUXU.      s H ` T V zXZXSXkXV C E H s       U.UXUXUXIX        2XHXPXUX_.M Q [ H   2 O 6 ",
"> @     Q.XXXX_.$XSXLXNXuXI.I.I.U.~.3XqXuXY.g Z v D |.`._./.%X*X*X@X_._._.].K g Z f Y.fXqXqX-XI.I.P.I.uXGXLXSX$X|. XXX(.  O @ 6 ",
"8 6     dXPXZXSXSXBXUXKXUXUXUXUXUX* X X   L %.4.#.XXSXZXxXkX] { { ( kXxXZXSXXX4.4.%.L   X X X PXPXUXUXUXUXUXBXSXSXxXSXdX    @ 8 ",
"6 =     0XUXCXPXUXIXIXGXKXLXPXPXUXX * X   O.0.2.=. XxXPXUXZX{ =.<.{ ZXPXSXSX}.=.2.0.O.  X *   UXPXPXFXGXKXIXLXUXPXPXUXrX    @ 6 ",
"6 @     rXHXUXPXPXLXvXMXLXLXUXPXUX  X     _ 0.2.=.+XSXUXUXZX{ <.<.] SXUXHXSX X=.3.0._   X     UXPXUXGXLXnXvXIXLXPXPXHXrX    X 6 ",
"6 @     fXPXZXSXPXUXGXKXHXLXUXUXAX        D 0.0.8.@XUXUXUXPX4.8.8.#.PXUXUXUX+X5.0.0.D         AXUXUXUXUXKXIXUXPXSXSXUXdX  @ @ 8 ",
"6       {.kX*X*XzXPXUXHXvX1X7XsX^.G.J.I.L.S ( X.( /.dXwXsXyXP ] ( P 7XwXrXdX/.( ( ) D K.J.J.G.^.sXaX6XvXHXIXPXxXjX*XkX{.      6 ",
"> O &   Y | ! N ).ZXGXHX!.        nXUXUXUXK.                                        K.UXUXUXnX        !.CXCXZX$.N ! | Y   # @ > ",
"@       H >.1.Q  XZXUXHX2Xo       UXNXKXUXK.  . .   + O ; ; O X   , ; ; : O # o     J.UXKXKXKXO     o 2XUXUXPX}.Q 1.9.X.  + + > ",
"6 2 &   X.,.3.T _.SXCXUXtXX o # . NXpXMXKXJ.  o     # O > ; X X X @ O < ;       @   J.KXnXpXNX  - X o tXUXHXSX|.Q 3.8.Y   # # > ",
"> # +   H [ ! M O.SXHXUX4X        UXKXUXUXI.                                        J.UXKXKXKX        0XUXHXZXO.M Q [ H   % # > ",
"8 @     {.kXkXjXzXPXnXHXbX6XsX8XeXJ.U.U.I.T.P H F Q.yX0X7X{.K H H K {.wXwXyXQ.F H L T.U.U.J.J.qX8XeX7XGXKXBXAXxXjXjXkX[.  O @ 8 ",
"u =     fXUXSXPXPXLXGXMXUXUXUXIXUX        _ }.5.&.XXSXUXUXCXO.5.7.o.PXUXUXUX].5.7.}._       . UXUXUXUXUXKXFXLXUXPXPXUXfX    @ 8 ",
"8 @     uXPXCXPXUXIXIXJXUXUXPXIXUX  1 4   X.8.2.;..XZXPXPXxX] >.>.] xXPXPXZX].;.,.5.$.  3 +   UXIXPXUXHXJXJXFXLXPXSXUXwX  X @ 6 ",
"r @ @   uXPXZXUXLXFXmXcXGXPXPXUXUX  . +   X.5.>.| +XxXPXPXxX( -.{ ( xXPXCXZX].| >.7.X.  . .   KXHXUXUXGXnXcXDXUXPXPXPXuX  @ = 6 ",
"8 >     yXxXZXZXSXIXFXIXHXfXfXLXcXa # .   K  X}.#.+XZXxXkX*X@.@.) @.*XkXxXxXoX#. X XK       w vXHXVXuXHXJXDXIXAXxXxXZXyX    @ u ",
"6 , >   _.%XoX).#XAXDXmX1XG.G.J.G.E.~.4XyXS v Z v K @XoX.X.X%XjXhX%X.X.XoX@XK v A x S 7X0X3XE.K.U.H.G.2XMXDXFX#X_. X@X`.  : @ 6 ",
"@ + :   X.:.W M /.AXFXmXE.        cXDXUXUXH.      d | ~ R [ jXSXZXjX[ Q ^ >.f       G.UXUXUXvX        ~.nXFXAX/.N Q >.X.  1 O @ ",
"@ % +   ` ,.:.T |.PXGXKX5X. @     IXKXHXUXU.  =   Z 0.:.~ W zXZXZXzX! ^ 1.q.m . 9   I.UXUXUXIXO O @   5XKXIXLX|.T 3.3.]   1 $ 6 ",
"@ & 5   o.9.3.C `.PXnXNX5XX , -   GXGXnXUXU.  o   A  X6.,. .xXZXxXxX[ 1.3.OXA   X   I.UXUXUXUXO 2 7   5XNXGXUX|.T 3.9.@.  4 $ @ ",
"@ . +   P ] ( B /.ZXHXUX5X  @ #   UXUXUXUXU.      j /.o.&.+.zXSXPXzX+.#.o.(.j       I.UXLXLXUX+ 5 ;   uXUXPXSX).B ` { )   1 + 6 ",
"6 +     {.kXkXdXgXPXHXHX0XO O @ 9 GXUXUXUXBXsXsXeX-Xs g g x SXUXUXSXx f g s W.iXeXsXfXUXUXIXIX@ ; O O uXUXPXPXhX&XkXkX{.  + # 6 ",
"8 @     fXPXUXSXVXCXbXUX0X, O   6 IXbXPXSXUXIXFXIXiX        IXIXJXJX        iXIXIXUXUXPXGXnXJXX @ O : uXPXHXUXSXSXUXUXeX  O O 8 ",
"6 O     rXPXUXIXGXCXbXPX7X5 O   * UXVXUXAXUXFXBXIXsX  X   X DXIXJXJXX   o   iXIXFXLXUXPXUXbXUXX @ O 3 wXPXCXHXHXLXIXLXrX  X O 6 ",
"> O #   uXPXPXPXPXPXUXUX7X9 O   o UXPXPXSXPXAXLXLXsX        IXIXUXDX        9XUXLXFXUXSXPXPXUXX     , 0XUXHXUXHXSXPXPXuX  #   6 ",
"> + O   dXZXxXlXxXPXUXUX0X@     $ HXxXzXxXSXPXPXLX6X      a iXUXUXrXa       1XAXPXUXZXzXzXlXSX. X     rXKXHXUXCXhXzXSXyX  .   6 ",
"r + O   O.7.#.@.`.xXCXNX5X@ = - q +.o.' G gXCXHXUXHXUXUXnX2Xp % 1 p 5XGXUXHXPXUXUXCX$XF ' ..*.0 - 6 X 9XMXbXZX`.] &.*._   . $ 8 ",
"6 .     X.>.! / _.ZXUXNX5XX @ - q o. .W C *XCXHXbXbXUXKXKXHX        GXUXUXUXbXbXHXSX&XW [ ~ >.0 2 = X 5XNXKXZX_.C  ...X.  + . 6 ",
"u O ;   @.9.3.E }.ZXPXNX5XX     q 6.:.,.W &XPXUXNXbXNXKXUXKX  + +   UXUXUXKXKXPXPXSX&X~ 1.:.q.t @ X X 5XNXKXZX_.W ,.8.X.  <   u ",
"        _ 0.9.[ |.SXKXNX5XX     t &.:.:.T &XSXUXPXHXKXKXIXJX  @ O   IXUXIXUXUXUXUXSX%XT :.:.5.t O O @ 2XNXKXPXXX[ 9.0.$.        ",
"s.t.u.u.J ) X.B (.UXUXKX5X# O ; 3 [.'.'._.%XjXjXhXgXPXHXUXJX  # O O IXUXKXPXfXhXjX*X@X*.].'.[.e < O , 2XKXHXUX(.B ( P J u.u.t.e.",
">X;X;X<Xd.  e   L.PXHXUX0X% 1 e ; PXSXZXzX}./ { ` ).ZXSXUXUXO , % X UXUXvXZX(.H ] / }.kXZXSXPX< e ; 3 wXUXUXLXG.  3   u.<X;X;X>X",
"x.F.z.,Xd.. :   I.UXUXUX0XO : 3 ; UXJXvXZX|.-.5.| _.ZXSXUXPXO O O 2 GXUXSXZX'.} | |  XZXbXKXJXO < ; 1 wXUXUXUXI.  ;   f.<Xz.F.N.",
"v.A.F.>Xu.  5   U.UXLXUXqX. . O ; UXUXSXZX_.` | ` _.xXSXUXUX9     2 UXUXSXZX_.` o.` '.xXSXUXUX; ; O   rXUXUXUXL.  3   u.,XZ.A.N.",
"N.v.A.:Xt.    X L.UXUXUXqXX X @ 9 UXUXPXSXXXY o.o.].xXSXUXPXi X @ 9 UXLXPXSX].o.+.Y XXZXSXPXIX9 @ X . qXUXUXUXL.      w.F.F.n.n.",
"V.n.B.S.r.w.f.l P.9XsXeXE.= X X w ^.7XdX$X(.Y I I Q.gXdX6X^.9 X   9 W.{.dXgX(.Y Y I (.$XdX7X[.w = X = E.iXeX9XP.l u.w.r.S.C.n.V.",
"C.V.C.F.c.z.:X;Xg.@   @ #     X   p 5 0 4 5 5 4 5 0 t 4 p a   o X   p p 0 4 3 - 4 4 4 1 5 5 p   X     @     @ g.;X>Xz.v.>XC.n.C.",
"D.V.c.c.c.v.A.:Xl.  ; : 2 +   . .     X   3 9 e e 5       . . - - . .       5 e e i 3         . o . # 1 : O   l.>XA.v.c.c.c.N.D.",
"D.D.N.N.m.c.v.>Xl.  O 1 4 % + . $ . . 2 ; ; < ; , 7 O , .   . $ $ . . . # O 7 , ; ; : , 2 o $ $ . . 1 1 1 O   l.>XA.c.m.m.m.S.C.",
"B.B.B.v.m.m.M.F.l.                                                                                            l.:Xv.m.m.N.B.B.N.",
"B.B.n.n.m.n.M.F.k.w.y.p.i.w.p.p.y.p.y.w.i.i.i.s.i.y.i.i.y.p.p.p.p.i.p.i.i.i.e.p.s.p.e.y.y.y.p.y.y.s.w.p.y.y.b z.F.v.m.b.v.n.B.N."
};
