/* XPM */
static char *b5280ef69ace402089442b1fd754d64aPLiQ5cpUHwcNU9bq[] = {
/* columns rows colors chars-per-pixel */
"64 64 2 1 ",
"  c black",
". c #53FFFF",
/* pixels */
"................................................................",
"................................................................",
"................................................................",
"................................................................",
"................................................................",
"................................................................",
"................................................................",
"...........................          ...........................",
"...........................          ...........................",
"...........................          ...........................",
"...........................          ...........................",
"...........................          ...........................",
"......................     ..........     ......................",
"......................     ..........     ......................",
"......................     ..........     ......................",
"......................     ..........     ......................",
"......................     ..........     ......................",
".................     ....................     .................",
".................     ....................     .................",
".................     ....................     .................",
".................     ....................     .................",
".................     ....................     .................",
".............    ..............................    .............",
".............    ..............................    .............",
".............    ..............................    .............",
".............    ..............................    .............",
".............    ..............................    .............",
"........     ......................................     ........",
"........     ......................................     ........",
"........     ......................................     ........",
"........     ......................................     ........",
"........     ......................................     ........",
"........     ......................................     ........",
"........     ......................................     ........",
"........     ......................................     ........",
"........     ......................................     ........",
"........     ......................................     ........",
".............    ..............................    .............",
".............    ..............................    .............",
".............    ..............................    .............",
".............    ..............................    .............",
".............    ..............................    .............",
".................     ....................     .................",
".................     ....................     .................",
".................     ....................     .................",
".................     ....................     .................",
".................     ....................     .................",
"......................     ..........     ......................",
"......................     ..........     ......................",
"......................     ..........     ......................",
"......................     ..........     ......................",
"......................     ..........     ......................",
"...........................          ...........................",
"...........................          ...........................",
"...........................          ...........................",
"...........................          ...........................",
"...........................          ...........................",
"................................................................",
"................................................................",
"................................................................",
"................................................................",
"................................................................",
"................................................................",
"................................................................"
};
