/* XPM */
static char *_eded1c21b4243de8b79181943137267gThaY3smpNHGBSGp[] = {
/* columns rows colors chars-per-pixel */
"64 64 18 1 ",
"  c #4EFFEF",
". c #51FFEE",
"X c #4DFEF4",
"o c #4BF7FC",
"O c #4CFCFD",
"+ c #57F7F5",
"@ c #58F6F7",
"# c #53FBF5",
"$ c #59F9F4",
"% c #54F6FE",
"& c #5BF6FD",
"* c #54FAFD",
"= c #59F9FD",
"- c #62F3FE",
"; c #76FFF4",
": c #75FFFD",
"> c #7CFEFE",
", c #81FDFF",
/* pixels */
"**OOOOOOOO******#***OOOXXXOO******O**OOOXOOO********##$=@-&&&=**",
"=*OOOOOO*o**=*=#=****XOXOOO***=*=***OOOOXOO*****=****#=@&&-&&&&&",
"**OO*O****************O*O**************X***************==*=*=***",
"****************************************************************",
"****************=***********************************************",
"****************************************************************",
"****************************************************************",
"****************************************************************",
"****************************************************************",
"**********************************************************=*****",
"*****************************=**********************************",
"****************************************************************",
"*********=******************************************************",
"****************************************************************",
"************************************************************%***",
"************************%***************************************",
"****************************************************************",
"****************=***********************************************",
"***************************************************=************",
"**********************************%*****************************",
"**********************=*****************************************",
"****************************************************************",
"******************************%************************%********",
"*****=*********************************=************************",
"****************************************************************",
"*******************%********************************************",
"****************************************************************",
"*****************************************%***************=******",
"**********=******************=**********************************",
"****************************************************************",
"********************************=**************=**************%*",
"****************************************************************",
"****************************************************************",
"*****************=**********************************************",
"**=*********************************%***************************",
"*********************************************=******************",
"****************************************************************",
"******************************%*********************************",
"*************%***********************************%********=*****",
"****************************************************************",
"**************************=***********************************%*",
"%***********************************=***************************",
"****************************************************************",
"********=**********%****************************=***************",
"****************************=***********************************",
"****************************************************************",
"****************************************************************",
"*******************************************%********************",
"********%*******************************************************",
"****************************************************************",
"****************************************=***********************",
"****************************************************************",
"***=*********************************************%**************",
"***************************=************************************",
"****************************************************************",
"*************************************************************=**",
"***=******************=********************#**$**************%**",
"X#=@@@$+@@#*####====&@@@$#XX*OO%***=&&OO**#XX..$#*O#XX##*X##=&&&",
"XO===$==*=*##XX#=&&*==%@$##XOOO****--=OO**OX .$$*O*X#XO*###*&&&&",
"OO*===*=****OXO*=&&**=&==#*O**%=&=&&&*OO**O*##--*OOO*O***O***&&=",
"OoOOo%OoOOoOOXOo%%oooO***#ooo%%%&&&&&OOo%%%o%&--*oooOooooooo%=%o",
"*OOOOO*O**O**O*O%&*oOOO******===&&@$*OOO%%%=%&--*O*OooO%*O%=O%%%",
"*O****%%=====-=&$@=***$###=*****@##..XO*&&&&&---*O**&&&&&&&@+###",
"::::::>>>>>,,,,,>>>:::;:;>>>>>::::;;;:::,,>>>>,,:::>>,,>,,,>:;;;"
};
