/* XPM */
static char *_477140938b54fc3dfdff5ce182737edAIxK9cIWQsFpqYh2[] = {
/* columns rows colors chars-per-pixel */
"64 64 248 2 ",
"   c #010201",
".  c #0A0102",
"X  c #010A01",
"o  c #090A06",
"O  c #02030B",
"+  c #0B010C",
"@  c #0C0B0B",
"#  c #120103",
"$  c #12010A",
"%  c #17030A",
"&  c #040212",
"*  c #0B0211",
"=  c #080A15",
"-  c #150116",
";  c #0A1511",
":  c #00231B",
">  c #280229",
",  c #032921",
"<  c #72396B",
"1  c #4A797C",
"2  c #83167E",
"3  c #327783",
"4  c #BB009C",
"5  c #B0369B",
"6  c #D030B8",
"7  c #8D468C",
"8  c #B750BA",
"9  c #AD69AB",
"0  c #C95AB9",
"q  c #DD0CDB",
"w  c #DC15D9",
"e  c #E219D7",
"r  c #CF35C9",
"t  c #D838D6",
"y  c #EA36D5",
"u  c #D814E4",
"i  c #D42DEB",
"p  c #CF39E4",
"a  c #D537E6",
"s  c #ED36EC",
"d  c #9354D2",
"f  c #B448CF",
"g  c #AE63C6",
"h  c #BC64C9",
"j  c #AF59E1",
"k  c #B066ED",
"l  c #CB49C5",
"z  c #D24ACA",
"x  c #C95BCA",
"c  c #DB4BD5",
"v  c #EB4BD6",
"b  c #E746DB",
"n  c #E957D7",
"m  c #C664C7",
"M  c #D667C8",
"N  c #CF67D6",
"B  c #D566D4",
"V  c #F063D8",
"C  c #D251EB",
"Z  c #EB48E6",
"A  c #F749EA",
"S  c #FE4CEE",
"D  c #E958E7",
"F  c #F754E9",
"G  c #FD54ED",
"H  c #EC4AF8",
"J  c #F845F5",
"K  c #F54CF3",
"L  c #FD4DF5",
"P  c #FD46FE",
"I  c #F44BFD",
"U  c #FE4DFE",
"Y  c #EB57F9",
"T  c #F354F4",
"R  c #FD52F5",
"E  c #F45AF5",
"W  c #FC5BF5",
"Q  c #F453FD",
"!  c #FD53FD",
"~  c #F359FD",
"^  c #FD5BFE",
"/  c #D162EF",
"(  c #F864ED",
")  c #EC65FB",
"_  c #F864F7",
"`  c #FB63FD",
"'  c #F074F0",
"]  c #4D8D8D",
"[  c #489689",
"{  c #549392",
"}  c #6A9891",
"|  c #6CB6B1",
" . c #55C2BE",
".. c #62C2BF",
"X. c #6BBDC2",
"o. c #5EB6E7",
"O. c #79B9F8",
"+. c #3EDCCD",
"@. c #3DE8DB",
"#. c #38E4E9",
"$. c #35FAEA",
"%. c #3CFEF4",
"&. c #3EFFFF",
"*. c #5BCFCE",
"=. c #59D8CB",
"-. c #6CCCC7",
";. c #77CBCA",
":. c #66D4CA",
">. c #7DD1CA",
",. c #65D6D4",
"<. c #78D3D2",
"1. c #4FECDC",
"2. c #66E8DC",
"3. c #79E3D6",
"4. c #56DFE3",
"5. c #77DCEA",
"6. c #6FCEF1",
"7. c #7DD9FC",
"8. c #49E9E9",
"9. c #5AE5E7",
"0. c #54EBEB",
"q. c #5AEDE9",
"w. c #4BF3EC",
"e. c #49F7EC",
"r. c #55F4ED",
"t. c #5AF7E8",
"y. c #53FCEC",
"u. c #48EBF5",
"i. c #56ECF3",
"p. c #56EFFD",
"a. c #5DEDFD",
"s. c #47F5F7",
"d. c #44FDF5",
"f. c #4CFDF5",
"g. c #4DF4FA",
"h. c #45FEFC",
"j. c #4CFDFC",
"k. c #54F5F4",
"l. c #5CF5F4",
"z. c #53FCF5",
"x. c #5BFBF4",
"c. c #54F6FE",
"v. c #5BF6FD",
"b. c #53FBFD",
"n. c #5AFAFD",
"m. c #67E5E7",
"M. c #79EBE8",
"N. c #63F4EB",
"B. c #67F5E8",
"V. c #7AF5E6",
"C. c #74F5ED",
"Z. c #75F9EC",
"A. c #6AE9F5",
"S. c #64EDFD",
"D. c #6CEDFE",
"F. c #77EDF9",
"G. c #63F4F5",
"H. c #6DF7F4",
"J. c #64FCF4",
"K. c #6CFAF2",
"L. c #63F3FD",
"P. c #6DF5FD",
"I. c #63FBFD",
"U. c #6CFDFC",
"Y. c #71F7F4",
"T. c #7BF7F5",
"R. c #75FDF2",
"E. c #75FDFE",
"W. c #7BFCFD",
"Q. c #969294",
"!. c #86A9B1",
"~. c #CD84BE",
"^. c #C7CDBA",
"/. c #8987D3",
"(. c #AD8CCD",
"). c #94ADDA",
"_. c #938BEF",
"`. c #A994FD",
"'. c #8FACF3",
"]. c #88B6F7",
"[. c #8CB5FD",
"{. c #92B9FF",
"}. c #A4A7E5",
"|. c #D693CE",
" X c #E582DB",
".X c #E691DA",
"XX c #E3AFDB",
"oX c #D392EC",
"OX c #E28AE2",
"+X c #F588FA",
"@X c #F193F9",
"#X c #FFA3FF",
"$X c #F9B6FD",
"%X c #FFBBFF",
"&X c #8ACBCE",
"*X c #A7CBD9",
"=X c #84EFD9",
"-X c #8BC4FF",
";X c #8CCDFF",
":X c #85E9EE",
">X c #88F6EC",
",X c #91F2EA",
"<X c #85EFF5",
"1X c #95ECF6",
"2X c #88F8F6",
"3X c #82F5FD",
"4X c #85FDFD",
"5X c #94F9FD",
"6X c #AEEFF4",
"7X c #A7FCFB",
"8X c #A9FFFF",
"9X c #B7FAF9",
"0X c #B4FEFF",
"qX c #BCFDFE",
"wX c #D2DBCF",
"eX c #D6D0DD",
"rX c #E0C8DC",
"tX c #DAD7E5",
"yX c #FFC6F5",
"uX c #F6CFF7",
"iX c #FFC3FD",
"pX c #FFCBFF",
"aX c #FFD4FF",
"sX c #FFDCFE",
"dX c #CBF3F6",
"fX c #C5FCFF",
"gX c #CBFDFF",
"hX c #D2F7FF",
"jX c #D2FFFF",
"kX c #DBFEFF",
"lX c #EDFCEC",
"zX c #F4FEED",
"xX c #FCFDEE",
"cX c #FFEFF5",
"vX c #FFE5FF",
"bX c #FFECFE",
"nX c #EAFCF5",
"mX c #EDF4FC",
"MX c #E4FEFE",
"NX c #EBFEFE",
"BX c #F6F4F6",
"VX c #FEF4F5",
"CX c #F4FDF5",
"ZX c #FDFBF4",
"AX c #F6F6FE",
"SX c #FEF5FE",
"DX c #F4FDFD",
"FX c #FCFAFD",
/* pixels */
"v.b.d.$.j.n.j.I.l.G.U.U.E.3X3XE.E.U.E.W.W.3X4XE.E.E.W.E.E.W.E.R.E.E.W.W.3X3XW.E.E.U.E.E.W.3XE.U.U.R.R.2XW.D.i.U.e.b.I.u.p.v.G.b.",
"n.c.b.h.j.b.s.b.n.b.j.j.b.v.n.b.f.b.f.l.l.x.z.z.j.j.b.c.b.n.z.b.b.b.v.l.S.G.n.b.b.j.f.f.l.G.b.h.z.z.z.x.v.I.I.z.e.f.b.g.b.v.n.x.",
"b.j.j.j.b.b.b.b.j.j.b.c.c.I.n.j.z.x.H.T.R.J.x.x.x.J.J.J.I.n.n.c.b.I.I.G.Y.H.U.I.n.I.U.Y.Y.B.x.d.f.n.b.b.n.G.l.x.z.f.h.j.h.b.b.b.",
"j.j.b.b.b.b.b.b.b.j.b.c.v.I.I.y.J. .<.;.;.:.,.=.:.-.;.-.*.,.E.L.P.A.:.-.-.:.:.,.,.,.-.-.<...N.f.j.n.b.j.c.L.G.x.b.h.j.b.v.v.b.n.",
"b.b.b.c.n.v.b.c.b.b.b.b.c.G.J.B.M.                        1 >XC.<X|                         ..J.z.b.h.h.I.L.G.v.b.j.b.D.D.L.c.b.",
"b.b.n.v.n.c.n.c.n.b.b.b.c.l.q.V.=X: = - % + & & O + + .   ] >XZ.T.-.    . . O O o O     *   -.B.r.z.j.j.n.L.G.n.z.j.b.L.L.v.v.b.",
"v.n.v.v.v.v.b.v.n.n.f.e.t.Z.Z.V.3.: = . $ O O   O     .   [ B.t.t.:.    . .   O O O     .   | V.Z.G.n.b.w.L.L.n.j.h.f.j.b.b.b.b.",
"v.v.v.n.v.v.v.n.b.v.l.K.B.......| , O # #   X X X   X .   [ R.y.B.:.    # .   O O X     .   } >.;.X.*.I.c.v.v.b.b.j.j.j.b.b.b.b.",
"v.v.b.n.b.b.b.b.b.v.L.M.|           @ .     X   X     .   [ R.J.K.-.    . # + & + + +   # ;         3 A.v.v.v.v.n.l.v.x.v.n.b.b.",
"v.v.b.b.b.b.j.j.j.b.G.3XX.+ & + @ o @ X X X X X     X +   { 4Xt.Z.&X  O O . O & * * +   o % . = &   ] 4XU.n.n.b.n.v.n.x.x.n.b.b.",
"n.n.b.g.j.j.f.j.b.b.e.B.<.  - * +   X X X X X X . X   .   ] 5X>X1X&X  O X O O O & + O     . . @ =   { 4X0.n.n.b.b.g.x.w.z.n.c.b.",
"c.b.j.d.j.h.h.d.j.b.z.J.,.  * $ #   o   X     . # # . .   1 &XX.&X!.      X O O + + .   . .   O +   { 5Xq.v.c.k.b.n.b.d.f.f.b.b.",
"n.b.f.d.j.j.j.f.n.x.z.J.,.  + % % . # .   . . # # # . . ; X         ; # X X X . # # . . . .     O   { 2Xy.x.I.l.I.n.b.%.%.f.b.b.",
"b.f.h.d.j.j.b.k.I.l.q.B.:.  * $ # . # . . . + + # . . . o o O O O + # . .     . # # #   . X     o   [ >X1.y.z.k.n.b.b.%.%.f.b.b.",
"b.j.f.j.f.f.x.0.A.m.2.>X&X  + . . . # # + .   O . O     . . O O + $ . . .   .   . . . . O O   O X   [ 2X1.e.f.8.b.b.j.h.j.j.b.b.",
"b.b.f.j.f.k.l.m.3X5X1X9X*X        . # # # O X O O O     o . . & & + o . . X   . O .     . O O o o   } 9X>X4X4Xi.n.b.b.n.b.b.b.b.",
"b.n.f.b.b.n.G.m.8XgXkXDXeX  X X X X . # # . O O O     .   . * & & O         + O & o O O O + O O +   Q.FXNXkXgXA.v.c.c.P.S.v.c.b.",
"x.n.b.b.b.b.k.1.8XkXNXFXeX  X X X X X X     * * + X X       O   X X X O   X O   o       O O & O     Q.FXDXMXgX9.s.j.j.v.a.v.b.b.",
"l.v.v.c.i.8.@.+.6XkXFXFXeX      X X X X X X                                 .           + + & O     Q.ZXFXMXfX,.#.u.u.p.b.c.b.b.",
"j.c.v.a.5XqXfX9XkXDXDXFXtX  & o   o X @ > 9 8 B M x m m x x x x x m h h m x M M 0 9 < & * * & O O   Q.FXFXFXDXdXfXfX8XG.c.b.n.b.",
"b.c.p.9.0XNXDXDXDXAXAXAXtX  & = . o . - > OX' _ E _ ` ` ` ^ ^ ^ ^ ` ) ) ` ^ W _ V  X7   * O O @ @   Q.FXAXSXSXFXFXFXjX2.w.f.n.b.",
"c.c.v.9.qXnXzXFXDXDXDXDXwX  . .   @ # - > OXB D D T ~ E R R R L R Q Y Q ! L S G V  X7   + o X X     Q.FXFXFXZXZXxXBXkX2.z.f.b.b.",
"v.v.c.8.7XnXCXZXDXBXCXzX^.                N B ' ) Y T T F G S L L Q Q Q ! R R ( V M <             O Q.FXFXlXlXCXCXZXkX9.d.f.b.n.",
"c.v.k.0.8XkXNXZXZXVXFXFXrX2 8 m N x N x l _ E ~ I ! L ! ! W W ! ! ! ! ! ! ! K T D ' z 0 m M m h 8 7 (.SXFXCXCXlXNXDXjXA.g.f.b.b.",
"n.k.k.0.7XkXNXZXVXVXVXbXuXf D ` ` Y ) ^ L U U P P ! ! U ! ! E Q E U U U ! ^ ~ H ~ ~ T ! _ G ) ) ) C oXvXSXFXzXlXNXNXhXA.c.c.b.b.",
"z.x.r.9.0XNXDXAXVXcXbXvX$Xr E ! ! H Q P ! L U ! ! W L R ! ! ! ^ ! ! ! U L U ~ ~ Q I U P L R U ! Y C oXvXSXZXxXzXCXDXgXm.r.b.b.b.",
"b.b.J.9.9XmXFXFXbXcXSXvX%Xr R I U Q ^ K ! S L E E T F G R L Q Q ! U U U U L ^ Y Q I ! I ! L P P H C @XsXbXbXcXxXFXDXfX2.x.x.b.c.",
"f.b.v.4.qXNXDXbXXX|..X@X+Xy U ! U H R K ! R ! Q W T F R R R ! R ! ! U ! L L ! T E E W T W ! U ! ! I / @X X|.|.sXSXDXjX5.i.l.b.b.",
"c.b.v.4.9XMXmXbX|.t c c b W ! ! ! ~ E T Z K I s ! ! W W L R ! U ! ! U U U ! W G G D n D D K S ! ! ! H Z b r 0 aXbXmXjX5.A.v.n.n.",
"c.c.p.0.qXkXmXSXoXC Y ~ T ^ ! I Q T E ` Q U U P ! U A R L U U ! U U ! ! U U L A K L T ^ ` ^ E Z T I U I R v z sXAXMXgX3.N.x.b.b.",
"v.c.p.9.qXDXFXvX@XY ~ Q Q ^ ^ ! ! T T T K U ! U J s t w e w u u u u q q q e e e y H s H I T Y ) Y W ! J R A n aXbXAXgXV.1.r.c.n.",
"c.b.l.A.).oX.X+XC I Q U U I U I ! R T W Q I I L b #X%XiXiXiXpXpXpXpXpXiX%XpXpXiX%X#X' L L L ~ ~ ~ ! ! L S A b +XoXoX}.;XS.v.b.b.",
"j.b.v.7./.c y s J U ! U ! P U U U U ! ! ^ Q R F r %XbXbXSXSXFXAXFXFXSXSXSXFXFXSXvXiX+Xn S ! ! ! Q Q K W G S A K s C d ;XS.v.v.b.",
"x.b.L.7.(.n S U U U I U U L L ! ! Q ~ I ^ R Z S 6 %XvXSXSXFXAXZXDXZXxXxXZXZXBXSXbXsX.Xz v S ! ! ! U K T F n G G L R j -XS.v.b.b.",
"v.b.a.7./.f t a H ~ Q U L L L ! ~ Y ~ U J y r 6 4 $XbXAXDXAXFXFXZXZXZXZXCXZXAXFXsXpX~.5 6 t A I U ! ! E D D D c t p d O.a.v.c.b.",
"z.d.j.p.6.O.[.`.k C Y R L G G K I Q ! ! b %X%XiX%XsXSXFXFXFXSXFXSXZXZXZXCXDXAXFXbXvXyXiXpX%X' A P U U Q Y D / `.'.].o.F.I.v.n.b.",
"f.h.%.&.j.c.S.;X`./ ) ~ ! ! W W ! ! ! G l vXSXSXVXFXFXFXFXAXFXFXVXFXZXDXFXDXDXAXSXbXvXbXVXbX@Xv L U U ! ! C j -XD.c.j.x.k.k.n.b.",
"f.f.s.s.c.c.a.7._.C Q U U ! U U U U ! Z 8 vXFXSXFXVXVXSXFXFXFXFXFXZXFXZXnXnXNXFXFXSXSXbXbXcX.Xt S P s s U H j {.p.&.h.y.q.y.n.b.",
"z.f.n.v.L.I.S.7.o.f C i i p p p p i t / g uXAXmXVXZXVXFXAXFXFXSXSXZXFXFXDXNXMXNXmXmXAXSXSXSX|.8 z u u s i f d 7.p.h.j.y.t.y.b.b.",
"f.f.z.k.l.S.S.6.O.].[.O.[.].].].].[.[.).).hXkXNXDXZXFXZXZXZXFXFXSXSXFXFXDXDXNXDXDXDXFXDXAXNX*X].{.{.{.-X[.O.o.a.p.v.c.r.y.z.c.b.",
"z.z.b.b.z.n.c.n.p.a.a.c.c.v.x.c.c.c.p.D.6.fXkXnXZXCXDXDXZXFXFXFXFXFXSXFXAXFXDXDXNXFXCXCXDXkX:Xa.v.c.b.j.j.b.s.j.g.L.S.c.b.b.b.b.",
"G.x.z.z.z.n.b.b.j.j.j.j.z.z.y.f.h.&.h.v.5.jXMXBXVXCXCXCXCXDXFXFXSXSXFXSXFXFXDXFXCXZXCXCXAXMX1Xu.h.h.&.h.d.f.f.b.b.L.S.c.j.j.n.b.",
"L.G.z.f.f.z.z.b.b.b.b.c.l.N.t.z.f.h.j.l.5.MXDXVXVXSXDXDXDXDXZXFXFXSXSXSXSXFXFXZXFXZXZXZXFXNX1Xu.s.j.j.y.y.B.t.z.v.v.v.h.h.j.b.b.",
"x.n.f.h.h.f.j.z.f.n.b.v.v.G.G.n.c.j.b.a.5.kXAXSXSXDXDXDXDXZXFXFXFXFXSXSXSXFXSXFXZXZXZXFXAXMX1Xe.h.j.z.x.y.B.N.x.n.v.v.j.j.b.b.b.",
"j.j.h.f.f.f.j.b.n.n.j.j.b.v.v.v.v.c.v.S.5.hXDXAXDXZXDXDXDXFXDXFXFXFXFXFXSXSXSXVXSXZXZXFXZXkX>Xe.j.b.c.n.x.t.x.x.b.v.n.b.j.b.b.b.",
"j.h.h.j.b.b.v.n.v.v.j.h.h.j.z.x.b.v.b.l.M.hXNXCXzXxXZXZXDXDXFXFXFXFXFXFXSXFXFXSXZXSXFXFXFXNX,Xw.g.v.c.b.b.z.z.b.b.v.v.f.f.j.b.b.",
"h.h.b.b.v.L.G.v.v.b.j.h.h.f.y.z.x.b.b.y.2.jXMXCXzXxXZXSXFXFXFXDXAXFXFXFXFXFXFXFXFXSXFXFXFXNX,Xw.b.v.v.b.j.h.f.j.v.v.n.f.d.f.b.b.",
"n.b.b.c.b.b.v.b.b.b.j.b.j.x.x.k.n.b.b.b.m.gXNXDXZXSXbXSXFXSXFXDXFXDXDXZXZXZXFXFXFXFXAXFXFXMX,Xw.g.v.v.b.j.z.b.j.b.v.b.b.b.n.b.b.",
"v.v.v.b.b.j.j.j.j.b.b.b.v.L.G.v.n.j.h.z.m.gXNXSXFXSXbXSXFXAXFXDXDXCXCXCXCXZXZXFXSXFXSXDXNXjX>Xq.k.v.n.z.k.k.z.n.b.b.b.x.c.b.b.c.",
"b.b.b.b.j.j.b.j.j.j.j.j.v.G.G.x.z.h.d.e.2.gXMXFXFXSXSXAXFXFXDXDXDXNXDXCXCXFXAXFXAXAXSXDXMXgX>Xm.N.r.I.z.z.n.x.n.x.z.b.z.z.b.n.b.",
"b.b.b.b.b.b.b.b.b.b.j.b.b.v.n.b.b.f.f.y.B.0XgXkXNXDXFXDXSXAXDXDXCXNXCXZXFXFXBXFXDXDXNXMXgX0X2XK.x.w.b.b.g.b.n.v.b.b.b.j.j.j.b.c.",
"c.v.v.v.n.v.v.v.v.v.b.b.j.h.h.j.b.b.n.b.e.$.$.@.=.6XkXFXSXSXFXFXFXFXFXFXVXSXSXNXjXqX=X=.2.A.0.k.f.d.j.h.j.b.b.b.c.b.j.j.j.j.b.n.",
"b.v.c.b.v.c.c.b.c.c.c.b.j.h.h.j.c.v.L.n.b.d.d.y.4.0XMXSXSXSXFXFXZXFXZXVXSXVXFXMXjXfX=X2.q.L.i.b.b.j.j.j.b.b.v.v.v.c.b.j.j.b.b.b.",
"b.b.b.b.b.b.b.b.b.b.b.b.b.j.c.L.P.D.D.a.b.h.f.z.m.qXNXDXSXAXAXDXFXAXSXSXbXvXSXmXjXqX2.B.L.I.v.b.b.b.b.b.c.L.L.S.L.L.v.b.b.b.j.b.",
"j.j.b.j.j.b.j.j.b.j.j.b.b.n.v.L.L.L.L.b.j.f.j.x.9.5X7X0X0X0X0X0XqXqXfXgXdXgXfXqX8X4XB.x.x.n.c.f.j.j.b.b.v.L.L.L.L.L.v.c.n.b.c.c.",
"b.z.b.z.b.z.b.z.z.b.b.f.x.l.v.L.v.b.j.d.%.h.b.x.8.l.t.0.0.0.0.q.m.m.m.m.m.m.#.8.#.u.s.j.b.f.b.j.j.b.b.b.n.v.v.l.G.v.l.n.b.v.n.v.",
"b.z.z.n.z.b.z.z.z.z.f.k.x.l.x.x.b.f.h.b.d.j.b.z.e.d.%.%.&.h.h.h.g.g.j.j.h.h.h.b.h.b.n.n.b.b.j.f.f.f.f.f.x.l.l.l.l.n.z.z.z.b.n.n.",
"f.b.g.b.c.b.n.b.b.b.n.l.y.I.f.b.b.d.j.f.b.n.v.n.b.h.j.j.b.v.b.n.b.j.j.j.h.h.h.h.b.c.p.v.b.b.b.b.c.b.k.n.c.n.x.v.n.z.z.j.f.f.f.z.",
"c.b.j.n.b.b.b.g.b.c.b.n.x.b.k.f.b.h.j.b.v.v.v.v.b.f.h.b.n.v.v.b.b.j.f.f.f.j.j.b.n.z.n.c.b.b.b.b.b.b.b.c.n.b.b.b.b.b.f.j.j.j.f.b.",
"c.v.v.n.n.n.b.c.n.n.b.b.f.b.s.h.j.j.b.v.v.L.S.S.L.v.v.v.v.l.k.f.f.f.f.f.b.n.z.x.b.f.n.f.b.b.c.b.c.c.b.c.b.f.b.j.j.h.j.h.f.j.c.b.",
"b.n.g.b.b.b.c.c.b.b.n.b.b.v.c.v.n.n.n.n.v.n.n.v.v.v.v.v.v.n.z.b.z.b.b.c.I.G.v.I.n.n.b.b.b.v.c.v.n.n.x.n.b.z.b.z.j.b.j.b.b.n.n.n.",
"g.z.b.b.n.n.b.b.b.I.n.k.l.l.G.l.k.k.e.z.z.x.k.l.x.z.z.I.I.L.I.I.L.I.P.P.P.F.W.D.P.P.G.U.P.Y.P.Y.H.Y.K.K.H.J.J.J.k.k.l.c.v.n.v.I.",
"C.Y.Z.C.C.Y.j.b.b.b.j.b.<XM.>X<XM.2XT.Z.Z.Z.C.Z.C.b.b.p.b.p.b.j.b.j.b.b.b.p.j.c.j.p.j.b.b.b.b.j.p.b.g.p.b.b.b.b.b.b.b.<X<X3X3X3X",
"b.b.f.b.j.b.b.b.b.j.b.b.b.b.b.f.b.p.b.b.b.p.j.b.b.p.j.b.b.j.b.b.b.b.p.b.j.b.j.b.b.b.b.b.j.b.b.j.b.b.j.b.j.b.c.j.b.b.b.j.c.b.j.b."
};
