/* XPM */
static char *_665dc21dfe54b7496bcd9617edf36f9cAPpEcdTYhttZO5S[] = {
/* columns rows colors chars-per-pixel */
"64 64 248 2 ",
"   c #010201",
".  c #0A0102",
"X  c #010A01",
"o  c #090A06",
"O  c #02030B",
"+  c #0B010C",
"@  c #0C0B0B",
"#  c #120103",
"$  c #12010A",
"%  c #17030A",
"&  c #040212",
"*  c #0B0211",
"=  c #080A15",
"-  c #150116",
";  c #0A1511",
":  c #00231B",
">  c #280229",
",  c #032921",
"<  c #72396B",
"1  c #4A797C",
"2  c #83167E",
"3  c #327783",
"4  c #BB009C",
"5  c #B0369B",
"6  c #D030B8",
"7  c #8D468C",
"8  c #B750BA",
"9  c #AD69AB",
"0  c #C95AB9",
"q  c #BB3FDD",
"w  c #DD0CDB",
"e  c #DC15D9",
"r  c #E219D7",
"t  c #CF35C9",
"y  c #D838D6",
"u  c #EA36D5",
"i  c #D814E4",
"p  c #D42DEB",
"a  c #CF39E4",
"s  c #D537E6",
"d  c #ED36EC",
"f  c #9354D2",
"g  c #B448CF",
"h  c #AE63C6",
"j  c #BC64C9",
"k  c #AF59E1",
"l  c #B066ED",
"z  c #CB49C5",
"x  c #D24ACA",
"c  c #C95BCA",
"v  c #DB4BD5",
"b  c #EB4BD6",
"n  c #E746DB",
"m  c #E957D7",
"M  c #C664C7",
"N  c #D667C8",
"B  c #CF67D6",
"V  c #D566D4",
"C  c #F063D8",
"Z  c #D251EB",
"A  c #EB48E6",
"S  c #F749EA",
"D  c #FE4CEE",
"F  c #E958E7",
"G  c #F754E9",
"H  c #FD54ED",
"J  c #EC4AF8",
"K  c #F845F5",
"L  c #F54CF3",
"P  c #FD4DF5",
"I  c #FD46FE",
"U  c #F44BFD",
"Y  c #FE4DFE",
"T  c #EB57F9",
"R  c #F354F4",
"E  c #FD52F5",
"W  c #F45AF5",
"Q  c #FC5BF5",
"!  c #F453FD",
"~  c #FD53FD",
"^  c #F359FD",
"/  c #FD5BFE",
"(  c #D162EF",
")  c #F864ED",
"_  c #EC65FB",
"`  c #F864F7",
"'  c #FB63FD",
"]  c #F074F0",
"[  c #4D8D8D",
"{  c #489689",
"}  c #549392",
"|  c #6A9891",
" . c #50B5B1",
".. c #6CB6B1",
"X. c #55C2BE",
"o. c #62C2BF",
"O. c #6BBDC2",
"+. c #5EB6E7",
"@. c #79B9F8",
"#. c #3DE8DB",
"$. c #38E4E9",
"%. c #35FAEA",
"&. c #3CFEF4",
"*. c #3EFFFF",
"=. c #5BCFCE",
"-. c #59D8CB",
";. c #6CCCC7",
":. c #77CBCA",
">. c #66D4CA",
",. c #7DD1CA",
"<. c #65D6D4",
"1. c #78D3D2",
"2. c #4FECDC",
"3. c #66E8DC",
"4. c #79E3D6",
"5. c #56DFE3",
"6. c #77DCEA",
"7. c #6FCEF1",
"8. c #7DD9FC",
"9. c #49E9E9",
"0. c #5AE5E7",
"q. c #54EBEB",
"w. c #5AEDE9",
"e. c #4BF3EC",
"r. c #49F7EC",
"t. c #55F4ED",
"y. c #5AF7E8",
"u. c #53FCEC",
"i. c #48EBF5",
"p. c #56ECF3",
"a. c #56EFFD",
"s. c #5DEDFD",
"d. c #47F5F7",
"f. c #44FDF5",
"g. c #4CFDF5",
"h. c #4DF4FA",
"j. c #45FEFC",
"k. c #4CFDFC",
"l. c #54F5F4",
"z. c #5CF5F4",
"x. c #53FCF5",
"c. c #5BFBF4",
"v. c #54F6FE",
"b. c #5BF6FD",
"n. c #53FBFD",
"m. c #5AFAFD",
"M. c #67E5E7",
"N. c #79EBE8",
"B. c #63F4EB",
"V. c #67F5E8",
"C. c #7AF5E6",
"Z. c #74F5ED",
"A. c #75F9EC",
"S. c #6AE9F5",
"D. c #64EDFD",
"F. c #6CEDFE",
"G. c #77EDF9",
"H. c #63F4F5",
"J. c #6DF7F4",
"K. c #64FCF4",
"L. c #6CFAF2",
"P. c #63F3FD",
"I. c #6DF5FD",
"U. c #63FBFD",
"Y. c #6CFDFC",
"T. c #71F7F4",
"R. c #7BF7F5",
"E. c #75FDF2",
"W. c #75FDFE",
"Q. c #7BFCFD",
"!. c #969294",
"~. c #86A9B1",
"^. c #CD84BE",
"/. c #C7CDBA",
"(. c #8987D3",
"). c #AD8CCD",
"_. c #94ADDA",
"`. c #A994FD",
"'. c #8FACF3",
"]. c #88B6F7",
"[. c #8CB5FD",
"{. c #92B9FF",
"}. c #A4A7E5",
"|. c #D693CE",
" X c #E582DB",
".X c #E691DA",
"XX c #E3AFDB",
"oX c #D392EC",
"OX c #E28AE2",
"+X c #F588FA",
"@X c #F193F9",
"#X c #FFA3FF",
"$X c #F9B6FD",
"%X c #FFBBFF",
"&X c #8ACBCE",
"*X c #A7CBD9",
"=X c #84EFD9",
"-X c #8BC4FF",
";X c #8CCDFF",
":X c #85E9EE",
">X c #88F6EC",
",X c #91F2EA",
"<X c #85EFF5",
"1X c #95ECF6",
"2X c #88F8F6",
"3X c #82F5FD",
"4X c #85FDFD",
"5X c #94F9FD",
"6X c #AEEFF4",
"7X c #A7FCFB",
"8X c #A9FFFF",
"9X c #B7FAF9",
"0X c #B4FEFF",
"qX c #BCFDFE",
"wX c #D2DBCF",
"eX c #D6D0DD",
"rX c #E0C8DC",
"tX c #DAD7E5",
"yX c #FFC6F5",
"uX c #F6CFF7",
"iX c #FFC3FD",
"pX c #FFCBFF",
"aX c #FFD4FF",
"sX c #FFDCFE",
"dX c #CBF3F6",
"fX c #C5FCFF",
"gX c #CBFDFF",
"hX c #D2F7FF",
"jX c #D2FFFF",
"kX c #DBFEFF",
"lX c #EDFCEC",
"zX c #F4FEED",
"xX c #FCFDEE",
"cX c #FFEFF5",
"vX c #FFE5FF",
"bX c #FFECFE",
"nX c #EAFCF5",
"mX c #EDF4FC",
"MX c #E4FEFE",
"NX c #EBFEFE",
"BX c #F6F4F6",
"VX c #FEF4F5",
"CX c #F4FDF5",
"ZX c #FDFBF4",
"AX c #F6F6FE",
"SX c #FEF5FE",
"DX c #F4FDFD",
"FX c #FCFAFD",
/* pixels */
"x.c.n.n.n.n.b.n.n.n.n.n.n.n.n.n.n.n.n.n.n.v.n.n.n.n.v.n.n.n.n.n.b.n.n.v.n.b.n.n.n.n.n.n.n.n.n.n.n.n.n.n.n.n.v.b.n.n.n.n.m.U.3Xn.",
"P.b.n.n.n.v.n.n.n.v.n.n.n.n.n.n.v.n.n.n.n.n.n.n.n.n.n.n.n.c.n.n.n.n.n.n.n.n.n.n.n.n.n.b.n.n.n.n.b.n.b.n.n.n.n.b.m.g.g.h.m.b.R.n.",
"P.b.n.b.b.b.n.n.b.n.n.g.g.j.k.n.b.b.v.n.x.g.g.n.n.x.c.b.b.z.t.b.b.b.b.b.l.t.c.x.n.k.k.k.n.x.g.n.n.n.n.g.n.n.n.b.n.x.g.k.b.b.3Xn.",
"v.m.k.b.I.P.n.n.m.c.c.g.&.j.k.b.D.s.n.v.e.x.f.n.h.t.z.z.S.B.0.D.F.D.s.P.t.y.y.u.n.k.j.k.k.j.j.x.x.n.k.k.k.n.n.n.x.g.n.k.n.v.<Xn.",
"i.i.k.b.I.P.k.n.z.c.e.f.&.&.j.m.I.U.h.H.3.3.0.S.S.M.M.1.6.N.C.8.-X{.@.S.m.u.u.t.v.n.k.k.n.j.g.n.m.x.j.k.k.n.b.c.n.g.k.k.n.b.<Xk.",
"U.n.j.k.v.n.j.g.b.m.m.n.n.k.k.n.v.h.i.8XjXkXjXjXhXgXfXjXjXgXgX}.f k f @.k.j.g.v.D.P.b.b.b.b.b.n.n.n.n.n.n.b.m.z.c.g.k.j.n.x.n.n.",
"n.g.g.j.k.k.j.n.b.c.k.n.b.b.k.n.n.k.i.fXDXVXZXDXNXDXDXAXmXMXFXoXZ ! a @.h.*.j.b.I.P.b.m.b.b.b.b.n.n.x.n.b.P.b.b.c.x.n.k.n.z.k.n.",
"r.f.g.x.n.g.g.n.b.b.n.b.m.U.n.n.b.d.$.fXFXxXxXNXNXCXFXSXbXAXbXoXs P y '.F.b.s.h.h.n.b.b.b.n.n.n.n.z.m.v.v.P.D.P.z.n.n.k.k.l.k.n.",
"U.n.x.c.c.m.n.n.m.b.n.l.b.l.9.q.S.0.-.dXFXZXzXCXlXzXZXuXaXvXsX] P E n `.{.;X7.s.k.g.x.z.c.n.k.n.c.n.b.v.b.P.P.P.c.c.n.n.n.K.n.g.",
"p.U.H.H.H.P.P.b.b.m.m.m.U.n.g.4XfXgXgXDXSXFXlXCXCXxXVX|.0 z m b D H F B l k f +.i.g.y.K.c.g.j.x.l.m.n.n.b.P.P.z.z.v.n.n.n.K.n.v.",
"I.U.H.P.D.P.b.b.b.b.m.m.c.r.r.4XkXMXMXFXSXFXlXCXZXZXSX|.t u S S H G F F Z J q @.n.x.B.B.c.c.j.x.x.c.n.n.v.b.P.b.z.l.n.k.n.K.n.n.",
"3Xb.m.m.U.m.e.v.m.Y.q.w.y.2.2.>XNXFXFXFXbXFXDXFXSXSXbXOXn Q E E H F F T ! I p [.k.r.u.y.z.n.g.k.x.x.h.k.n.b.b.m.c.m.b.n.n.J.k.n.",
"2Xc.n.j.k.k.n.U.S.4X4X5X2X>X>X9XFXFXZXFXFXFXFXbXvXvXsX@XA I P P Q G W ~ Y I d {.k.j.x.c.z.n.n.n.n.x.x.j.k.n.n.n.l.n.v.n.x.L.a.n.",
"A.c.n.n.j.g.b.=.3 [ } } } { { | !.!.!.!.!.!.!.).oXoX+X( J U ~ P L L U Y Y d i {.h.j.k.n.n.v.v.b.b.U.n.k.k.n.k.n.g.x.v.n.b.J.n.n.",
"E.n.m.m.n.x.H.O.          X X           O X   7 Z Z Z U Y ~ ^ / ! ~ ~ Y ~ I i {.n.j.k.k.n.b.b.b.b.t.g.d.k.n.k.n.g.x.n.n.b.T.k.n.",
"K.g.g.n.x.t.T.:.  & = @ + O O X # O   O @ X O 9 _ T U ~ E R T ^ ! Y Y I Y D x -Xb.j.d.j.k.h.k.v.z.w.c.g.n.n.k.g.g.n.n.v.m.J.a.n.",
"Y.j.f.x.K.V.=X:.  O @ o .   X O O O O & @ X   j _ ! I ~ P R _ T ! ~ I S n u 8 ].a.i.p.e.r.e.e.e.w.3.K.l.n.n.k.g.g.n.n.v.b.T.n.n.",
"Q.n.c.w.o.;...|   o o         O O & * & O X   M ` Y I ~ K W T ~ Y ~ L ] @X|.|.*X:X1X1X<X>X,X,X,X>X,X2Xq.l.b.v.g.n.n.n.n.n.T.n.k.",
"3XH.B.;.        ; % . . . o O O & O + & O o   N ) P P E S / R P P D v $XbXbXSXNXkXMXNXMXkXNXNXMXjXgX0XS.b.P.n.n.n.n.n.v.v.I.n.k.",
"Q.z.T.1.  * o . # #     . .   O O . + * * +   M Q P ~ ~ F ' U P D G 6 iXSXSXSXDXNXFXSXFXFXFXFXFXNXMXgX3.M.K.c.n.n.n.n.k.m.I.n.n.",
"E.g.Y.:.          . X     .       X           0 ~ Y Y W F ' U ~ b x 5 yXbXbXSXFXDXCXZXZXZXFXFXAXDXAXMX-.3.V.c.n.m.b.n.g.n.I.n.k.",
"W.g.Y.;.    X   + O O . . # .   O     < 7 7 < c R Y Y Q m R s ] +X.X^.yXvXSXSXDXCXCXZXZXFXVXFXFXFXFXMX=X=X3.B.i.m.v.b.m.n.H.n.n.",
"Y.k.U.<.  O   O + + + + # # . . O   X 9  X XN ` W U U R F E d #XiXsXaXvXbXSXmXCXFXZXZXZXFXFXVXFXSXSXDXqXqXqX5Xd.n.b.v.g.n.I.v.n.",
"W.k.m.<.  O   O * * + + # # . O & O X 0 C m C W ! ^ ^ Q G K u %XvXvXvXbXSXFXmXDXNXCXFXVXVXFXFXFXFXAXNXkXjXjX7X$.j.n.n.c.b.I.n.k.",
"W.n.U.<.  O X O O & O O . . . . O X   N ` H Q G T ^ ! R H D r iXSXSXFXFXFXFXNXNXDXDXFXFXVXFXFXFXFXFXFXDXmXkXqX$.n.j.n.m.m.F.n.n.",
"Q.b.K.<.      O O & O O X     . O O   V E D H D ! ^ / E / P r pXSXAXVXDXDXNXNXNXDXDXFXFXSXVXFXFXZXBXAXFXSXbXfX$.k.j.g.x.H.W.n.n.",
"4XP.L.;.  . . # . O X X X     . . X   c / P E ~ / ~ U P E Y e iXVXCXFXDXDXnXNXCXDXFXFXFXSXSXFXFXFXFXFXSXSXbXdXM.j.j.k.m.P.F.a.n.",
"3Xm.E.;.  . . . # . O X   X .     X   c ' / ! ~ ~ I Y P P Y w iXFXZXCXCXFXmXDXDXSXFXSXSXFXFXFXZXCXCXFXcXSXcXhXM.j.j.j.c.U.I.n.k.",
"3Xb.L.>.    X   O O O   . . . . o     j _ ! ! ~ Y ~ Y Y Y Y w iXVXZXZXCXCXCXFXFXFXSXSXSXFXFXFXZXCXCXDXFXSXSXhXM.k.k.j.x.z.I.k.n.",
"Q.m.K.=.    X X         ; # . o   X   j _ ! ! ~ Y ~ Y Y ~ Y i pXSXxXZXZXFXFXFXFXFXSXSXSXFXFXFXDXDXCXCXFXVXSXfXM.k.n.g.g.n.I.n.a.",
"Q.v.m.S.O.o.o.>.;.&X&X~.. $ $ + O X   M ^ ! ! ~ ~ ~ Y ~ Y Y i pXFXZXVXZXZXFXFXFXFXSXSXFXFXFXFXDXDXCXCXFXFXFXfX0.k.k.g.g.n.P.k.n.",
"W.n.b.I.G.2XV.V.L.Z.1X&X  O * & & X   c ' Y E ~ ~ ~ ~ ~ ~ ~ i pXFXFXZXFXVXFXSXVXSXSXFXSXFXFXDXDXDXCXDXFXZXAXqXM.k.n.n.g.g.U.n.n.",
"W.n.n.P.A.A.r.u.K.y.:X:.  O O & &     c / P E E ! / ! ~ ~ ~ i pXFXAXFXFXVXFXSXFXFXFXFXFXFXFXAXDXDXDXDXFXFXDX0X0.k.n.n.x.g.U.n.n.",
"Q.g.m.W.<X>XC.A.E.2X5X&X  X + . &     c / P P E E ~ ! ~ U Y e pXFXDXFXFXFXFXVXFXFXFXFXFXDXDXFXFXFXDXDXFXFXAX0Xq.j.n.b.z.n.U.k.n.",
"W.m.z.<.1 [ { { { [ } 1   o . o .     c ' E L Q ! ~ P E E Y e iXSXFXAXFXFXFXFXFXFXCXZXDXFXAXFXFXFXAXFXSXSXSX0Xe.j.n.m.z.n.U.a.n.",
"W.n.H.=.                ; o . .       c ` E H Q E ~ E E E E e iXSXSXAXDXDXFXFXZXDXDXCXDXDXFXFXFXFXFXFXSXSXFX0Xq.*.n.b.b.b.P.n.n.",
"Q.n.L.;.  .   .   + . . . .     .     M ' W R ~ ~ E H E E E e yXbXAXSXFXFXAXVXFXDXDXDXDXZXFXFXSXSXFXFXSXSXDX0Xq.&.k.n.b.b.U.p.k.",
"W.n.Y.;.  +   .     X . . .   o   X   M ' W R Y ~ P G G / L y %XbXvXvXSXFXVXZXFXCXCXCXDXAXZXVXSXSXAXDXkXMXNX8Xw.&.j.j.b.b.c.n.n.",
"W.g.K.>.  +     X     # # + X O   o   c Q F T ~ ~ Q G R ~ Y d #X%X%X$XsXFXVXVXFXBXZXVXFXDXxXxXVXbXSXDX6X0XfX5XB.g.j.k.b.b.x.k.a.",
"W.n.c.>.  O   X X     # # # O O O +   N ` T _ U I ~ R / ~ E K A t 6 4 yXSXFXVXCXCXFXVXFXDXzXzXZXFXFXNX-.5.5.0.e.r.n.n.P.P.z.T.n.",
"W.g.c.-.  &   X X X   . + . O   O *   V ` ] ] J I ~ W R J I I L F G 6 %XSXFXmXNXNXVXSXSXSXnXCXDXFXFXkX#.u.c.c.m.x.n.b.P.b.c.Z.k.",
"Q.c.c.<.  O O O X X X   . + O   O *   M ] V B W Y Y P ~ K Y ~ Y ~ G 6 %XSXFXmXMXjXMXAXAXDXMXMXNXNXnXgX%.g.j.j.n.x.b.P.P.b.z.A.n.",
"4Xc.K.>.  +   O X X X X   . .         9 OX XM ` Y P K E J Y Y U ~ P u %XbXvXuXjXfXjXkXMXkXjXjXjXgXgX0X%.f.f.j.g.n.v.b.P.b.l.A.a.",
"Q.z.A.:.  - # #     X X . + + # #     > > >   z P E ~ E S ! L ! / / K n x 8 h (.7.6.6.6.6.N.3.M.M.3.V.f.n.n.n.&.f.x.b.b.b.x.E.n.",
"Q.z.E.:.  - + # . X X X . # # # # X X $ - -   c / I L R R ` R / ^ I Y ~ H A ( '.S.z.a.s.D.z.t.k.k.r.u.n.m.b.b.f.n.k.n.v.m.x.A.n.",
"W.g.J.1.  = O o @ @ X o . # # #   X X     $   V ' ! / R W R R R ~ ! ^ U ~ E y [.b.j.j.n.b.b.v.k.k.f.g.m.P.F.b.k.k.k.k.n.n.x.Z.n.",
"Y.n.c.X.  : : ,   o   . . . . X   X X X . @   c T J ! J ^ R W E ~ ! ^ ! ~ Y s [.v.j.j.k.v.b.n.n.k.j.g.n.P.F.P.n.j.f.j.k.n.z.2Xp.",
"W.k.c.K.N.=X4...  o + % % # . X X X X   O     B ' ~ ~ Y ~ P ~ ~ U ~ ! ! ~ Y a [.n.j.g.n.b.n.c.x.n.x.n.n.n.P.P.b.c.n.n.k.b.z.N.k.",
"Q.n.g.c.V.C.C.,.X o $ $ $ $ .   X X   O = +   c ' ^ U Y ~ U ~ Y Y ~ E E Q Y a [.n.r.u.b.b.x.c.l.z.c.n.k.k.P.P.b.b.g.g.j.v.z.>Xn.",
"Q.b.n.m.L.B.V.o.  * - * * * +   X X X & & .   8 _ R L ~ ~ Y / U Y P E E E Y a ].n.u.K.z.b.c.g.c.P.H.n.k.j.n.b.H.z.x.l.j.v.H.<Xn.",
"3Xb.P.U.H.z.V. .  +       X                   2 g 6 t A E / / U I P P D ~ Y a @.b.u.B.P.b.g.g.c.P.H.b.j.k.k.b.m.H.m.m.n.m.z.:Xk.",
"W.n.v.b.v.n.c.M...O.1.<.<.>.&X*XeXeXeXtXtXwX/.rXyX%XiX] A W ! Y Y Y E P ~ Y p [.n.x.z.b.n.j.j.n.b.n.n.k.k.k.n.x.c.l.c.g.n.l.<Xn.",
"Y.k.n.h.m.n.r.P.N.3XV.K.c.V.>X9XDXFXFXFXFXCXxXFXvXvXvX@Xx Q ! ~ Y Y E ~ ^ ~ p [.v.k.v.v.k.j.j.k.b.n.k.n.n.n.n.x.x.z.b.n.n.u.n.n.",
"W.n.n.n.n.n.g.m.D.U.t.g.u.y.M.1XkXNXDXFXAXDXCXFXSXBXbX.Xv T ^ ! ~ I ! T T ! Z [.b.n.n.n.n.n.k.n.n.g.n.n.v.n.k.x.x.x.b.n.m.m.n.n.",
"K.n.n.k.n.n.n.n.v.n.n.x.m.H.M.1XgXkXMXDXAXDXBXZXVXcXbX|.x Z J U ~ U ! Z ( Z g '.s.k.n.n.m.n.v.n.k.k.n.b.v.n.n.x.x.n.n.n.n.m.k.n.",
"z.n.k.n.n.b.b.b.n.n.n.n.m.P.S.3X7X7X7XkXDXDXDXZXxXVXbXXX|.oX@XZ K ~ U l `.f +.7.a.k.n.x.m.b.b.n.k.k.n.b.b.k.k.n.n.n.n.b.n.n.n.n.",
"U.n.k.n.n.b.b.b.n.k.k.f.g.l.q.M.M.2.-.9XCXZXZXCXFXAXFXbXbXSXbX+XD I s `.;X8.8.F.m.n.n.n.x.m.b.n.k.k.n.b.n.n.n.n.c.k.n.v.h.n.n.n.",
"d.k.n.n.n.n.b.n.n.k.k.j.k.n.c.z.H.l.$.9XDXCXzXNXNXDXFXAXmXNXSX.Xu D a [.P.s.P.b.n.n.n.g.g.b.P.b.k.k.n.b.v.n.g.g.x.m.n.n.v.n.k.n.",
"m.n.n.n.b.b.b.b.n.n.k.j.k.k.g.l.n.n.9.qXNXnXMXkXkXNXAXNXkXMXDXoXt v g @.b.v.P.P.b.n.c.j.j.n.P.n.n.k.n.n.b.n.n.n.x.n.v.b.n.m.A.n.",
"k.k.n.n.n.b.b.b.n.n.k.k.k.g.j.g.n.n.p.5X0XqX9X7X7X0X9X9X9X0XqX_.).).(.7.k.n.P.b.l.c.g.f.g.n.b.n.k.n.n.b.b.k.g.n.n.g.n.b.k.m.Z.n.",
"%.j.k.n.b.b.b.m.b.n.d.g.f.g.k.g.n.n.v.D.0.p.9.q.q.0.0.5.5.0.p.S.8.8.8.n.j.d.b.x.x.x.g.j.j.k.n.v.n.n.n.b.v.n.k.x.n.n.m.m.n.m.Z.k.",
"j.n.k.n.n.n.b.b.b.n.n.g.f.j.k.g.g.n.n.b.a.b.a.l.l.t.K.z.b.b.p.s.b.D.b.k.&.d.v.n.m.n.x.g.j.j.n.n.b.n.n.b.b.k.n.n.x.v.n.n.h.n.Z.n.",
"n.h.k.n.n.b.b.m.n.b.n.n.n.n.n.k.n.m.b.v.v.v.b.b.b.x.n.n.n.v.v.n.n.n.n.g.j.g.x.g.g.z.H.m.g.k.j.n.b.n.n.n.b.n.g.n.x.n.v.b.n.x.Z.n.",
"m.m.n.k.k.n.b.b.b.m.b.m.n.n.n.n.n.z.b.n.h.v.b.b.x.x.n.k.n.v.b.n.n.x.m.x.f.g.x.g.x.H.H.b.k.j.k.b.b.n.n.b.v.n.k.x.x.n.n.v.v.g.Z.n."
};
