/* XPM */
static char *f8a9ee2472294c72c9f9246f8f8a8be6vltko6TmLKiff4Wk[] = {
/* columns rows colors chars-per-pixel */
"64 64 246 2 ",
"   c #010201",
".  c #0A0102",
"X  c #010A01",
"o  c #090A06",
"O  c #02030B",
"+  c #0B010C",
"@  c #0C0B0B",
"#  c #120103",
"$  c #12010A",
"%  c #17030A",
"&  c #040212",
"*  c #0B0211",
"=  c #080A15",
"-  c #150116",
";  c #0A1511",
":  c #00231B",
">  c #280229",
",  c #032921",
"<  c #72396B",
"1  c #4A797C",
"2  c #83167E",
"3  c #327783",
"4  c #BB009C",
"5  c #B0369B",
"6  c #D030B8",
"7  c #8D468C",
"8  c #B750BA",
"9  c #AD69AB",
"0  c #C95AB9",
"q  c #DD0CDB",
"w  c #DC15D9",
"e  c #E219D7",
"r  c #CF35C9",
"t  c #D838D6",
"y  c #EA36D5",
"u  c #D814E4",
"i  c #D42DEB",
"p  c #CF39E4",
"a  c #D537E6",
"s  c #ED36EC",
"d  c #9354D2",
"f  c #B448CF",
"g  c #AE63C6",
"h  c #BC64C9",
"j  c #AF59E1",
"k  c #B066ED",
"l  c #CB49C5",
"z  c #D24ACA",
"x  c #C95BCA",
"c  c #DB4BD5",
"v  c #E746DB",
"b  c #E957D7",
"n  c #C664C7",
"m  c #D667C8",
"M  c #CF67D6",
"N  c #D566D4",
"B  c #F063D8",
"V  c #D251EB",
"C  c #EB48E6",
"Z  c #F749EA",
"A  c #FE4CEE",
"S  c #E958E7",
"D  c #F754E9",
"F  c #FD54ED",
"G  c #EC4AF8",
"H  c #F845F5",
"J  c #F54CF3",
"K  c #FD4DF5",
"L  c #FD46FE",
"P  c #F44BFD",
"I  c #FE4DFE",
"U  c #EB57F9",
"Y  c #F354F4",
"T  c #FD52F5",
"R  c #F45AF5",
"E  c #FC5BF5",
"W  c #F453FD",
"Q  c #FD53FD",
"!  c #F359FD",
"~  c #FD5BFE",
"^  c #D162EF",
"/  c #F864ED",
"(  c #EC65FB",
")  c #F864F7",
"_  c #FB63FD",
"`  c #F074F0",
"'  c #4D8D8D",
"]  c #489689",
"[  c #549392",
"{  c #6A9891",
"}  c #50B5B1",
"|  c #6CB6B1",
" . c #55C2BE",
".. c #62C2BF",
"X. c #6BBDC2",
"o. c #5EB6E7",
"O. c #79B9F8",
"+. c #3EDCCD",
"@. c #3DE8DB",
"#. c #38E4E9",
"$. c #35FAEA",
"%. c #3CFEF4",
"&. c #3EFFFF",
"*. c #5BCFCE",
"=. c #59D8CB",
"-. c #6CCCC7",
";. c #77CBCA",
":. c #66D4CA",
">. c #7DD1CA",
",. c #65D6D4",
"<. c #78D3D2",
"1. c #4FECDC",
"2. c #66E8DC",
"3. c #79E3D6",
"4. c #56DFE3",
"5. c #77DCEA",
"6. c #6FCEF1",
"7. c #7DD9FC",
"8. c #49E9E9",
"9. c #5AE5E7",
"0. c #54EBEB",
"q. c #5AEDE9",
"w. c #4BF3EC",
"e. c #49F7EC",
"r. c #55F4ED",
"t. c #5AF7E8",
"y. c #53FCEC",
"u. c #48EBF5",
"i. c #56ECF3",
"p. c #56EFFD",
"a. c #5DEDFD",
"s. c #47F5F7",
"d. c #44FDF5",
"f. c #4CFDF5",
"g. c #4DF4FA",
"h. c #45FEFC",
"j. c #4CFDFC",
"k. c #54F5F4",
"l. c #5CF5F4",
"z. c #53FCF5",
"x. c #5BFBF4",
"c. c #54F6FE",
"v. c #5BF6FD",
"b. c #53FBFD",
"n. c #5AFAFD",
"m. c #67E5E7",
"M. c #79EBE8",
"N. c #63F4EB",
"B. c #67F5E8",
"V. c #7AF5E6",
"C. c #74F5ED",
"Z. c #75F9EC",
"A. c #6AE9F5",
"S. c #64EDFD",
"D. c #6CEDFE",
"F. c #77EDF9",
"G. c #63F4F5",
"H. c #6DF7F4",
"J. c #64FCF4",
"K. c #6CFAF2",
"L. c #63F3FD",
"P. c #6DF5FD",
"I. c #63FBFD",
"U. c #6CFDFC",
"Y. c #71F7F4",
"T. c #7BF7F5",
"R. c #75FDF2",
"E. c #75FDFE",
"W. c #7BFCFD",
"Q. c #969294",
"!. c #86A9B1",
"~. c #CD84BE",
"^. c #C7CDBA",
"/. c #8987D3",
"(. c #AD8CCD",
"). c #94ADDA",
"_. c #938BEF",
"`. c #A994FD",
"'. c #8FACF3",
"]. c #88B6F7",
"[. c #8CB5FD",
"{. c #92B9FF",
"}. c #A4A7E5",
"|. c #D693CE",
" X c #E582DB",
".X c #E691DA",
"XX c #E3AFDB",
"oX c #D392EC",
"OX c #E28AE2",
"+X c #F588FA",
"@X c #F193F9",
"#X c #FFA3FF",
"$X c #F9B6FD",
"%X c #FFBBFF",
"&X c #8ACBCE",
"*X c #A7CBD9",
"=X c #84EFD9",
"-X c #8BC4FF",
";X c #8CCDFF",
":X c #85E9EE",
">X c #88F6EC",
",X c #91F2EA",
"<X c #85EFF5",
"1X c #95ECF6",
"2X c #88F8F6",
"3X c #82F5FD",
"4X c #85FDFD",
"5X c #94F9FD",
"6X c #AEEFF4",
"7X c #A9FFFF",
"8X c #B7FAF9",
"9X c #B4FEFF",
"0X c #BCFDFE",
"qX c #D2DBCF",
"wX c #D6D0DD",
"eX c #E0C8DC",
"rX c #DAD7E5",
"tX c #FFC6F5",
"yX c #FFC3FD",
"uX c #FFCBFF",
"iX c #FFD4FF",
"pX c #FFDCFE",
"aX c #CBF3F6",
"sX c #C5FCFF",
"dX c #CBFDFF",
"fX c #D2F7FF",
"gX c #D2FFFF",
"hX c #DBFEFF",
"jX c #EDFCEC",
"kX c #F4FEED",
"lX c #FCFDEE",
"zX c #FFEFF5",
"xX c #FFE5FF",
"cX c #FFECFE",
"vX c #EAFCF5",
"bX c #EDF4FC",
"nX c #E4FEFE",
"mX c #EBFEFE",
"MX c #F6F4F6",
"NX c #FEF4F5",
"BX c #F4FDF5",
"VX c #FDFBF4",
"CX c #F6F6FE",
"ZX c #FEF5FE",
"AX c #F4FDFD",
"SX c #FCFAFD",
/* pixels */
"b.C.z.b.c.c.b.z.z.b.b.c.c.b.b.v.n.h.h.j.n.G.G.z.z.z.f.f.z.l.b.j.b.c.c.b.j.z.k.b.c.c.c.j.b.n.n.b.b.b.b.b.n.n.v.v.n.n.b.b.j.b.v.c.",
"b.Z.z.n.n.b.b.z.z.b.b.c.c.b.b.v.b.h.h.j.b.G.x.z.f.z.f.h.f.b.b.z.b.c.c.b.b.b.k.x.c.c.c.c.c.v.b.b.b.b.z.z.b.b.n.c.v.c.b.b.b.j.g.b.",
"b.C.b.g.c.b.b.z.z.b.b.c.c.b.b.n.b.j.h.h.j.z.z.n.z.n.s.%.j.L.L.L.v.i.c.v.l.I.r.k.k.c.v.p.v.c.b.f.j.j.f.f.j.b.b.n.v.v.n.b.b.j.n.h.",
"b.C.b.c.n.n.b.z.z.b.b.c.c.b.b.b.b.b.j.h.h.f.z.z.k.l.s.h.c.7.7.7.A.i.0.4.4.9.9.0.0.8.i.9.a.c.b.b.j.j.d.d.s.s.z.n.v.v.c.b.b.j.h.$.",
"b.Z.n.b.n.b.b.z.z.b.b.c.c.b.b.b.b.c.b.f.f.z.z.k.v.I.b.j.6./.(./.).0X9X8X0X8X9X7X7X8X8X0X5Xi.b.b.f.j.f.h.h.j.b.b.c.v.c.n.b.b.h.j.",
"b.Z.n.c.n.b.b.z.z.b.b.c.c.b.j.j.b.L.n.f.f.z.b.v.v.L.c.c.O.f b z oXAXhXnXmXmXmXhXhXnXvXmX0X8.b.x.k.f.j.h.h.f.b.b.c.v.c.n.b.b.b.n.",
"b.b.b.c.b.b.n.z.z.b.b.c.c.b.j.j.n.L.v.j.j.z.b.c.v.L.a.L.'.t A y OXZXmXbXCXSXAXmXmXBXkXAX0X@.z.G.G.x.b.j.h.h.j.b.n.c.n.b.b.b.s.g.",
"b.b.b.g.c.g.z.z.z.b.b.c.c.b.j.j.b.v.v.z.z.z.b.b.P.7.7.;X`.s L s +XxXZXcXcXSXSXMXVXVXAXAX8X+.1.m.m.0.k.f.s.h.j.b.n.n.n.b.b.b.z.I.",
"b.b.b.c.n.b.b.z.z.b.b.c.c.b.j.j.b.v.l.b.z.b.j.p.6./._._.k G Q H S @XoX|.XXcXNXVXVXAXAXAXhX6X7X7X3XA.I.n.j.b.b.b.n.c.n.b.b.j.b.l.",
"b.b.n.b.b.c.b.z.z.b.b.c.c.b.j.j.b.b.b.b.b.b.j.a.].f V ^ ^ W I Q G U V z |.cXzXNXNXbXAXCXAXnXhXdX5Xm.G.n.z.b.b.c.n.b.b.b.b.j.b.G.",
"b.b.n.b.b.c.b.z.z.b.b.b.b.b.j.b.b.j.b.b.b.z.j.v.[.V W ( U W P Q W ! U c .XcXcXNXVXAXAXCXSXAXmXhX1Xm.q.z.f.k.G.L.v.g.b.b.b.b.b.U.",
"b.b.k.b.b.n.l.z.z.b.b.b.b.j.z.b.b.h.h.j.b.b.j.c.[.i I Q W Q I I I W R c @XcXcXcXVXkXAXCXSXSXSXAX8X>XB.x.J.N.3XM.J.e.b.n.c.c.j.U.",
"b.<Xl.b.j.k.l.x.k.b.b.j.j.b.b.v.b.h.h.b.v.l.z.c.[.i I Q K K I I I W Y C ` %X%X$XeX^.qXrXrXwXwXwX*X&X:.,.,.<.;.| m.x.z.c.c.c.b.E.",
"b.:Xl.b.b.n.n.l.l.n.j.h.h.n.G.L.x.f.j.c.G.N.z.v.].p I Q K K K L I ~ ~ T v r r l 2                               } N.l.G.I.v.v.3X",
"b.<XG.b.s.f.z.l.l.v.b.h.h.n.G.G.x.z.k.v.l.t.y.c.].p I T A T I I I Q W Q I Y Y ( 8   O & & X X X O + * * * - *   -.Z.N.U.I.b.v.3X",
"b.<Xl.n.j.f.j.x.l.L.v.j.j.b.n.l.x.z.b.v.n.z.f.b.].p I Q T Q Q I I Q P Q I I Q _ n   + = o X X X X   # # $ $ O   >.V.V.B.y.f.b.W.",
"b.M.l.b.j.b.b.b.l.L.L.b.b.z.z.b.b.k.b.c.b.f.d.c.].p I Q T W W I Q Q W Q I I Q _ M     O   X X X X . # % $ + @   | 3.>XM.J.z.j.E.",
"p.2Xx.b.j.h.d.f.b.L.D.v.c.f.h.h.b.b.n.c.j.h.h.c.[.a I Q W ! W Q T R Y R G W G U x   @ o o X X X   . . .     o   , : :    .l.b.U.",
"b.C.k.b.b.j.j.h.j.v.D.L.n.f.d.h.b.b.c.c.b.h.h.v.[.p I Q P W W W Y Y R R Y ~ W _ M   $     X X   # # # o o X @ @   = =   <.Y.f.E.",
"b.R.z.b.c.b.j.b.%.n.v.n.b.y.y.f.j.r.l.S.a.l.l.D.'.^ C F Q I P ~ ! Y _ Y Y J H ~ x   - - + X X # # # .   X X X . # # $   ;.T.J.W.",
"b.Z.z.n.v.n.z.d.%.b.b.b.d.B.2.m.m.2.m.5.5.5.5.6.).g 8 z v H ~ ~ W J T J T Q Q K l   > > >     # # # .   X X X   # # %   ;.Y.l.W.",
"p.Z.z.v.L.v.v.z.f.f.d.d.$.9XdXgXgXgXgXhXhXhXgXsXfXpXxXxX%Xy J Q P I I H T K K I ) m  XOX9   O O O O + O X X X X O O &   :.J.x.W.",
"b.Z.z.v.L.v.c.z.b.j.f.f.$.sXnXmXmXnXmXAXCXCXnXhXnXbXSXZX%Xr D W I Q Q P Q J I I R N N ` n   & O O O + + X X X X O O O   ,.x.z.W.",
"b.Z.z.v.L.v.b.z.n.x.x.y.@.nXSXSXAXBXBXSXZXZXMXvXmXbXSXZXyX6 D S J I L G W R Q L Y ( S ) N   * O O O . # . X X X X O O   =.x.f.E.",
"b.Z.z.v.L.b.b.w.8.9.m.4.=.mXSXSXAXkXkXAXSXNXNXAXAXMXSXZXtX4 6 z v H Q Q ~ R Q L P ( S _ N   + O O O # # #   X X X   O   :.x.b.E.",
"p.b.k.v.v.h.h.f.G.5X0X9X6XAXZXZXNXlXlXAXSXVXMXBXVXNXNXZXpX$X%X%X#XC I Q Y D T Q I U S R n   o O O O . # .   X X X   +   -.J.j.E.",
"b.b.k.n.c.h.h.%.q.7XmXnXhXSXMXZXZXVXVXAXAXAXAXBXSXNXNXSXZXcXxXcX%Xt J Q D D A Q Q Y R ) n   X   X X . . .     X     +   ;.H.b.E.",
"b.p.I.l.v.b.j.%.0.9XCXSXSXSXSXZXZXVXSXAXAXAXAXAXVXVXNXSXSXZXZXcXyXw T T T T T Q Q Y R _ n   X .     . . + O + . .       -.K.b.E.",
"b.b.I.v.l.n.b.&.0.9XSXZXZXSXSXSXZXSXSXSXAXAXBXAXAXSXSXSXCXCXZXcXyXw Q T T T Q Q T F T ~ x       o   o ;                 *.J.n.E.",
"b.p.I.n.l.n.b.h.0.9XSXZXZXSXCXSXSXSXSXAXAXAXAXVXSXSXSXSXSXSXSXZXuXw I T T Q Q Q T F T ~ x   O O . . o   1 [ [ ' ] ] ' 1 ,.n.n.E.",
"b.b.I.b.k.n.b.h.0.9XCXZXSXCXAXCXSXSXSXSXSXSXVXVXSXSXSXSXSXSXCXSXuXw I Q T W Q Q T T K ~ x   O * O @ O   &X5X4XR.R.Z.>X<XE.n.f.W.",
"b.b.I.z.z.b.b.h.q.9XCXSXSXAXAXAXSXSXSXSXSXSXSXSXZXSXSXVXVXVXCXSXuXu Q W Q W Q Q Q T I ~ x   X O & O O   X.T.N.x.y.y.R.F.L.b.b.R.",
"b.b.I.z.f.b.b.j.9.0XCXSXSXAXAXAXSXSXSXSXSXSXZXZXZXZXNXVXVXVXSXSXuXu Q W Q W Q Q Q T Q ~ x   X & & + O   &X1XT.K.J.t.Z.F.P.b.b.E.",
"b.b.I.z.f.j.b.j.m.sXSXVXSXBXAXAXAXSXSXSXSXZXZXZXZXSXVXVXVXVXMXSXuXu I Q Q I Q Q Q W W _ n   X O + $ $   !.&X>.-.:.:.-.X.A.n.b.E.",
"p.b.P.z.f.j.j.j.m.sXZXNXSXBXBXAXAXVXSXSXZXZXZXSXSXVXVXSXVXVXVXZXuXu I I I I Q I Q W W ( h   X   o . % ;                 *.I.v.W.",
"b.b.P.b.f.f.h.j.m.dXZXNXVXBXBXBXAXVXSXZXZXZXZXSXSXSXAXVXVXVXVXZXuXq I I I I I I Q W W ( h   X   . . . . O O O O         -.J.v.3X",
"b.b.P.v.z.f.h.h.m.dXcXZXNXSXBXBXAXSXSXZXZXZXSXCXAXAXvXSXBXBXVXVXyXq I I K I H Q Q W Q _ x   X         X X O + . # . .   ;.H.G.3X",
"b.p.D.G.n.j.h.h.m.dXcXZXNXSXAXAXSXSXSXZXZXSXSXAXAXAXvXAXAXAXVXZXyXe I Q K I W ~ Q K K ~ x   X       X X X O + # # . .   -.H.G.4X",
"b.b.E.G.k.f.h.h.#.sXZXSXSXMXMXSXVXSXZXNXSXVXSXAXmXvXmXAXCXSXMXSXuXe I E T ~ ~ W J T Z E N   O O       X O O O O O   O   :.J.b.W.",
"b.b.D.I.n.b.h.b.#.0XbXmXmXSXSXSXSXSXSXNXVXVXAXAXAXmXAXSXSXSXZXZXyXe A F D U W U D / F ) m   O O O   . + O O & O O O O   ,.I.b.E.",
"b.b.P.n.b.b.b.j.#.7XgXgXhXAXSXSXSXSXVXVXVXVXAXAXAXbXSXZXcXxXcXxX%Xy A D R W W W S B b B 0   O O O . # # + & & + O O O   ,.n.j.E.",
"b.p.P.b.f.c.n.b.u.4X0X0X0XAXZXSXSXSXVXVXVXVXAXSXAXbXZXcXxXuXpXyX#XH T S Y P P ! ` m  X X9     O O . # # + + + + O O O   ,.I.h.U.",
"b.b.G.b.n.n.p.b.s.N.2.=X=XmXZXSXSXSXVXVXVXVXBXBXSXSXZXxXtX~..X+X` s Y S E Q I Y x < 7 7 <   X O   . . . O O + +   X O   -.U.f.E.",
"b.b.U.b.f.c.c.n.b.J.B.2.=.nXCXAXCXSXVXVXVXVXAXAXSXZXZXcXyX5 z v Y G ~ S R I L E x       &   X O         X X             ;.H.z.E.",
"b.b.P.b.b.b.b.b.b.n.G.q.2.sXnXmXAXSXVXSXSXZXSXAXAXZXZXZXyX6 D A K W _ S E Q I E m   + & * + O O O   . . .   # # . o *   <.Y.l.W.",
"b.b.P.n.b.b.b.z.z.c.I.L.A.9XsXgXnXmXnXhXnXmXnXhXmXZXcXcX%Xt A I K Y ~ Z T K K / m   o O & + O O O O O . . . % @         ..N.G.3X",
"b.b.Y.b.b.b.b.z.z.z.c.k.0.2X>X>X,X,X,X>X,X1X1X:X*X|..X@X` Z Q Q Q U R K Q I I ) n   X O & O & O O O       . o   { | -...N.x.z.E.",
"b.b.Y.b.b.b.z.f.j.j.b.b.k.G.m.q.w.w.w.e.w.i.u.a.].8 v C Z H Q W ! U Y K Q L W ( h   X @ O O O O X O X O   @ &   >.V.B.J.z.d.h.U.",
"b.p.Y.n.b.b.z.f.j.j.b.b.j.x.q.l.b.z.j.f.f.j.h.v.-Xz A I L I I W ! U Y Q Q P ! ( 8   X @ O O O + O X O + * = &   ;.Z.r.z.f.f.j.U.",
"b.b.Y.n.b.b.z.f.b.j.b.j.s.y.r.l.v.v.n.b.b.j.h.c.{.u L I I Q I W Q ~ Q Q G V V V 7                               | Y.z.b.n.n.z.R.",
"b.b.H.b.b.b.b.f.z.b.b.j.h.b.I.n.c.c.b.b.b.f.&.g.{.u s I I W J J T Q I G ^ @XoXoX(.Q.Q.Q.Q.Q.Q.Q.{ ] ] [ [ [ ' 3 *.n.j.h.b.b.k.R.",
"b.p.H.b.b.b.b.z.b.c.c.j.h.j.z.b.b.b.b.n.x.z.h.b.{.i L I W R R Q K K H C @XxXxXxXZXSXSXSXSXSXSXSX8X>X>X2X4X4X4XA.I.b.j.j.s.b.n.2X",
"b.b.K.b.b.b.v.l.n.c.c.b.j.j.k.k.j.h.z.l.l.y.f.j.].a L W U S D A K T T C OXcXcXZXSXSXSXcXSXAXSXmX>X1.1.q.q.0.U.v.c.u.n.I.b.n.v.3X",
"b.b.K.z.b.b.v.l.l.L.v.c.b.b.k.k.z.h.z.l.N.t.z.j.O.f G V S S D A Z D v r |.ZXVXAXBXjXSXZXSXnXnXhX4Xe.y.I.n.n.c.v.v.v.L.L.L.G.I.P.",
"p.b.J.z.b.b.l.l.l.L.L.c.b.n.b.k.z.f.z.l.N.t.f.s.o.d j j ^ S F A v b l l |.NXlXBXBXjXVXZXAXsXsXsX4Xz.n.I.n.n.n.c.v.v.L.L.G.G.I.i.",
"b.b.J.z.b.b.n.l.l.L.L.v.b.n.b.b.b.j.b.k.x.z.z.j.a.7.-X-X`.c T K +XiXpXpXpXVXkXvXvXlXVXSXaX,.9.A.0.8.i.l.k.b.n.v.b.b.b.n.x.k.z.U.",
"b.b.z.b.j.b.b.l.l.L.L.c.b.n.n.b.b.b.b.b.n.b.b.g.c.a.v.D.'.t K a oXcXSXcXZXVXBXmXAXVXlXSXsX#.g.c.b.b.v.I.b.b.n.v.z.j.j.z.z.z.e.f.",
"b.b.k.b.h.z.z.x.l.L.v.b.b.b.b.b.n.v.v.v.v.v.L.P.v.h.&.c.].r T V oXSXnXbXCXAXAXmXAXSXMXSXsXu.j.c.b.j.n.n.z.j.v.l.j.h.j.j.h.f.f.z.",
"b.b.k.b.h.j.z.k.n.v.c.b.b.z.z.b.n.c.c.c.c.c.L.S.c.j.h.j.6.d j d }.gXgXgXgXsXsXdXgXhXhXgX7Xu.j.c.b.j.j.b.n.n.n.l.j.h.b.n.j.h.n.I.",
"b.<Xk.b.h.f.f.z.b.n.b.j.j.j.z.b.z.f.j.b.j.h.j.v.r.y.y.n.D.O.-X-X7.M.3.5.5.m.m.A.A.9.2.2.G.g.v.P.n.h.%.%.d.w.l.n.j.j.L.D.c.h.g.u.",
"b.<Xv.b.h.j.f.z.b.n.b.j.j.j.z.b.z.f.f.j.h.h.j.b.k.t.t.r.I.a.S.S.S.1.N.A.l.x.k.g.j.d.z.w.z.b.v.S.b.h.d.%.f.b.n.n.z.b.L.D.c.j.n.p.",
"b.3Xv.n.j.j.z.b.n.b.b.b.j.b.b.b.b.j.j.b.b.j.j.b.k.z.z.k.v.c.v.v.c.r.l.G.v.x.z.b.b.j.j.f.b.b.c.v.b.j.f.f.z.b.b.b.b.b.v.L.n.b.c.L.",
"b.T.v.n.c.f.f.n.c.c.b.z.b.b.b.b.b.b.b.b.b.b.b.b.b.b.b.b.b.b.b.b.b.b.b.b.b.b.b.b.b.b.b.b.b.b.b.b.b.b.b.b.b.b.b.b.b.b.b.b.b.b.G.l.",
"b.3Xv.v.b.z.z.n.c.c.b.b.b.b.b.b.b.b.b.b.b.b.b.b.b.b.b.b.b.b.b.b.b.b.b.b.b.b.b.b.b.b.b.b.b.b.b.b.b.b.b.b.b.b.b.b.b.b.b.b.b.b.b.k."
};
