/* XPM */
static char *_042e11d8cf14c41dfe459cfe57b70c2tLnDeoLKlSS5XLgc[] = {
/* columns rows colors chars-per-pixel */
"64 64 248 2 ",
"   c #010201",
".  c #0A0102",
"X  c #010A01",
"o  c #090A06",
"O  c #02030B",
"+  c #0B010C",
"@  c #0C0B0B",
"#  c #120103",
"$  c #12010A",
"%  c #17030A",
"&  c #040212",
"*  c #0B0211",
"=  c #080A15",
"-  c #150116",
";  c #0A1511",
":  c #02261E",
">  c #280229",
",  c #72396B",
"<  c #4A797C",
"1  c #83167E",
"2  c #327783",
"3  c #BB009C",
"4  c #B0369B",
"5  c #D030B8",
"6  c #8D468C",
"7  c #B750BA",
"8  c #AD69AB",
"9  c #C95AB9",
"0  c #BB3FDD",
"q  c #DD0CDB",
"w  c #DC15D9",
"e  c #E219D7",
"r  c #CF35C9",
"t  c #D838D6",
"y  c #EA36D5",
"u  c #D814E4",
"i  c #D42DEB",
"p  c #CF39E4",
"a  c #D537E6",
"s  c #ED36EC",
"d  c #9354D2",
"f  c #B448CF",
"g  c #AE63C6",
"h  c #BC64C9",
"j  c #AF59E1",
"k  c #B066ED",
"l  c #CB49C5",
"z  c #D24ACA",
"x  c #C95BCA",
"c  c #DB4BD5",
"v  c #EB4BD6",
"b  c #E746DB",
"n  c #E957D7",
"m  c #C664C7",
"M  c #D667C8",
"N  c #CF67D6",
"B  c #D566D4",
"V  c #F063D8",
"C  c #D251EB",
"Z  c #EB48E6",
"A  c #F749EA",
"S  c #FE4CEE",
"D  c #E958E7",
"F  c #F754E9",
"G  c #FD54ED",
"H  c #EC4AF8",
"J  c #F845F5",
"K  c #F54CF3",
"L  c #FD4DF5",
"P  c #FD46FE",
"I  c #F44BFD",
"U  c #FE4DFE",
"Y  c #EB57F9",
"T  c #F354F4",
"R  c #FD52F5",
"E  c #F45AF5",
"W  c #FC5BF5",
"Q  c #F453FD",
"!  c #FD53FD",
"~  c #F359FD",
"^  c #FD5BFE",
"/  c #D162EF",
"(  c #F864ED",
")  c #EC65FB",
"_  c #F864F7",
"`  c #FB63FD",
"'  c #F074F0",
"]  c #4D8D8D",
"[  c #489689",
"{  c #549392",
"}  c #6A9891",
"|  c #50B5B1",
" . c #6CB6B1",
".. c #55C2BE",
"X. c #62C2BF",
"o. c #6BBDC2",
"O. c #5EB6E7",
"+. c #79B9F8",
"@. c #3DE8DB",
"#. c #38E4E9",
"$. c #35FAEA",
"%. c #3CFEF4",
"&. c #3EFFFF",
"*. c #5BCFCE",
"=. c #59D8CB",
"-. c #6CCCC7",
";. c #77CBCA",
":. c #66D4CA",
">. c #7DD1CA",
",. c #65D6D4",
"<. c #78D3D2",
"1. c #4FECDC",
"2. c #66E8DC",
"3. c #79E3D6",
"4. c #56DFE3",
"5. c #77DCEA",
"6. c #6FCEF1",
"7. c #7DD9FC",
"8. c #49E9E9",
"9. c #5AE5E7",
"0. c #54EBEB",
"q. c #5AEDE9",
"w. c #4BF3EC",
"e. c #49F7EC",
"r. c #55F4ED",
"t. c #5AF7E8",
"y. c #53FCEC",
"u. c #48EBF5",
"i. c #56ECF3",
"p. c #56EFFD",
"a. c #5DEDFD",
"s. c #47F5F7",
"d. c #44FDF5",
"f. c #4CFDF5",
"g. c #4DF4FA",
"h. c #45FEFC",
"j. c #4CFDFC",
"k. c #54F5F4",
"l. c #5CF5F4",
"z. c #53FCF5",
"x. c #5BFBF4",
"c. c #54F6FE",
"v. c #5BF6FD",
"b. c #53FBFD",
"n. c #5AFAFD",
"m. c #67E5E7",
"M. c #79EBE8",
"N. c #63F4EB",
"B. c #67F5E8",
"V. c #7AF5E6",
"C. c #74F5ED",
"Z. c #75F9EC",
"A. c #6AE9F5",
"S. c #64EDFD",
"D. c #6CEDFE",
"F. c #77EDF9",
"G. c #63F4F5",
"H. c #6DF7F4",
"J. c #64FCF4",
"K. c #6CFAF2",
"L. c #63F3FD",
"P. c #6DF5FD",
"I. c #63FBFD",
"U. c #6CFDFC",
"Y. c #71F7F4",
"T. c #7BF7F5",
"R. c #75FDF2",
"E. c #75FDFE",
"W. c #7BFCFD",
"Q. c #969294",
"!. c #86A9B1",
"~. c #CD84BE",
"^. c #C7CDBA",
"/. c #8987D3",
"(. c #AD8CCD",
"). c #94ADDA",
"_. c #938BEF",
"`. c #A994FD",
"'. c #8FACF3",
"]. c #88B6F7",
"[. c #8CB5FD",
"{. c #92B9FF",
"}. c #A4A7E5",
"|. c #D693CE",
" X c #E582DB",
".X c #E691DA",
"XX c #E3AFDB",
"oX c #D392EC",
"OX c #E28AE2",
"+X c #F588FA",
"@X c #F193F9",
"#X c #FFA3FF",
"$X c #F9B6FD",
"%X c #FFBBFF",
"&X c #8ACBCE",
"*X c #A7CBD9",
"=X c #84EFD9",
"-X c #8BC4FF",
";X c #8CCDFF",
":X c #85E9EE",
">X c #88F6EC",
",X c #91F2EA",
"<X c #85EFF5",
"1X c #95ECF6",
"2X c #88F8F6",
"3X c #82F5FD",
"4X c #85FDFD",
"5X c #94F9FD",
"6X c #AEEFF4",
"7X c #A7FCFB",
"8X c #A9FFFF",
"9X c #B7FAF9",
"0X c #B4FEFF",
"qX c #BCFDFE",
"wX c #D2DBCF",
"eX c #D6D0DD",
"rX c #E0C8DC",
"tX c #DAD7E5",
"yX c #FFC6F5",
"uX c #F6CFF7",
"iX c #FFC3FD",
"pX c #FFCBFF",
"aX c #FFD4FF",
"sX c #FFDCFE",
"dX c #CBF3F6",
"fX c #C5FCFF",
"gX c #CBFDFF",
"hX c #D2F7FF",
"jX c #D2FFFF",
"kX c #DBFEFF",
"lX c #EDFCEC",
"zX c #F4FEED",
"xX c #FCFDEE",
"cX c #FFEFF5",
"vX c #FFE5FF",
"bX c #FFECFE",
"nX c #EAFCF5",
"mX c #EDF4FC",
"MX c #E4FEFE",
"NX c #EBFEFE",
"BX c #F6F4F6",
"VX c #FEF4F5",
"CX c #F4FDF5",
"ZX c #FDFBF4",
"AX c #F6F6FE",
"SX c #FEF5FE",
"DX c #F4FDFD",
"FX c #FCFAFD",
/* pixels */
"b.b.b.b.j.b.b.b.b.p.b.b.j.b.j.b.b.j.b.b.b.b.b.j.b.j.c.j.b.p.b.b.j.b.b.j.b.j.p.c.b.b.p.b.b.j.p.b.j.b.b.b.b.j.c.b.j.b.b.b.b.g.j.b.",
"3XT.3X<X<Xb.b.j.b.j.b.b.p.b.b.p.b.b.b.j.c.j.v.b.b.b.p.b.b.j.j.b.b.b.p.b.p.b.b.Y.Z.Z.Z.R.T.C.>XM.<X<XM.>Xb.b.b.b.b.b.Z.Z.C.C.Y.C.",
"v.v.v.c.n.k.x.k.J.J.K.N.K.H.H.Y.Y.H.P.P.P.G.P.P.A.W.D.P.P.P.P.I.L.I.I.I.I.k.k.k.x.k.k.k.k.w.x.l.l.l.l.v.k.n.I.b.b.b.n.b.n.b.k.z.",
"v.n.n.b.b.j.b.j.b.b.z.b.k.n.v.n.n.c.n.v.j.b.b.n.I.L.L.L.n.b.j.z.j.n.c.l.l.n.v.I.v.I.n.v.n.b.b.n.v.n.n.b.n.b.b.c.g.c.b.b.b.g.n.b.",
"n.c.j.j.h.j.j.j.b.j.j.b.b.b.c.b.b.b.b.j.z.n.f.b.n.k.n.b.z.f.f.f.z.l.l.l.v.b.v.L.L.L.L.v.v.b.j.j.s.s.b.f.b.b.b.n.c.n.n.n.n.b.n.c.",
"z.f.z.j.j.j.z.b.n.b.n.b.b.b.b.b.b.b.b.c.b.n.k.b.b.d.f.j.j.f.f.b.b.n.v.n.b.j.j.b.v.L.v.v.b.j.h.b.f.f.x.k.n.b.b.b.g.b.b.c.n.b.b.g.",
"z.f.z.f.f.f.b.n.k.n.l.n.n.b.b.b.b.b.b.b.v.p.c.b.j.h.h.h.j.j.b.b.b.b.b.b.j.d.j.b.b.n.v.b.j.j.d.b.z.z.n.l.l.k.b.n.c.b.b.z.b.g.b.c.",
"b.n.b.z.z.z.x.l.l.l.n.k.k.w.f.f.f.b.z.b.n.b.b.h.j.j.h.h.j.h.j.j.j.h.h.&.%.%.d.e.z.b.f.d.b.h.d.n.n.l.x.x.z.z.z.b.z.n.b.z.z.z.b.z.",
"v.v.v.n.x.n.l.L.l.l.v.v.b.z.j.f.f.z.z.b.b.s.s.#.#.#.m.m.m.m.m.9.0.0.0.0.0.q.l.8.n.b.j.d.d.j.b.v.l.L.l.b.z.z.z.z.f.b.z.z.b.b.z.z.",
"c.b.c.b.b.v.L.S.L.L.L.v.b.b.b.j.j.g.c.v.J.N.5X8XqXfXdXhXhXfXqXqXqX0X0X0X0X8X5Xq.x.f.d.j.n.v.S.L.L.v.c.b.j.j.b.j.j.z.b.j.j.j.j.b.",
"b.b.c.b.v.v.v.L.L.L.v.c.j.b.b.b.b.v.I.P.N.2.qXjXmXAXvXcXSXSXFXFXDXDXFXFXFXNXqX9.x.d.d.b.v.D.D.L.L.b.j.b.b.b.b.b.b.b.b.b.j.b.b.b.",
"z.b.j.j.j.b.b.v.v.v.v.b.j.j.j.b.b.k.S.q.2.=XqXjXMXSXSXSXSXVXFXFXAXSXSXSXAXMX9X4.y.f.h.b.n.L.L.c.j.j.j.j.b.b.c.c.c.c.b.v.v.v.b.c.",
"b.b.j.j.j.j.b.c.c.b.b.j.h.j.%.g.k.0.A.2.=.=XqXjXNXFXSXcXFXFXZXZXFXFXFXSXFXMX6X=.@.$.$.d.b.n.n.b.j.h.h.j.b.c.n.v.v.n.v.c.c.v.v.b.",
"b.b.b.j.f.b.b.n.v.v.b.f.b.b.e.J.N.2X0XgXMXNXDXAXFXVXFXFXCXCXDXCXDXFXSXAXDXFXDXNXkXfX0Xm.y.f.d.z.b.v.v.b.j.b.b.b.b.b.b.b.b.b.b.b.",
"b.c.b.z.z.z.n.k.n.n.x.z.z.n.r.N.m.>XgXMXDXSXSXAXFXAXFXDXCXDXnXDXDXDXFXFXAXSXSXFXFXMXgX2.y.d.h.f.n.G.L.k.b.j.j.j.j.j.j.b.b.b.b.n.",
"c.b.b.n.k.b.b.b.b.z.z.z.x.n.v.l.q.>XjXNXDXFXFXFXFXZXZXCXCXDXDXDXDXDXFXAXSXSXSXSXFXNXjXm.f.j.j.n.l.G.L.v.b.b.j.b.j.j.j.b.b.v.v.v.",
"b.b.b.z.b.b.v.b.f.z.z.j.b.n.v.c.w.,XMXFXDXFXFXFXFXFXZXZXFXDXDXDXDXFXSXFXSXSXFXDXDXNXkXm.j.f.b.n.x.x.x.z.j.b.b.b.b.v.c.b.v.b.c.n.",
"b.b.f.d.f.n.v.b.b.d.h.j.b.v.v.b.r.,XNXFXFXFXFXFXVXFXFXFXZXFXFXFXFXFXFXFXVXVXxXzXnXNXjX2.r.n.b.k.z.z.d.h.h.j.c.v.v.L.L.b.b.j.h.j.",
"b.b.z.j.f.v.v.v.b.z.z.z.b.c.n.g.w.,XMXFXFXVXSXFXSXFXFXFXFXFXFXFXFXDXFXDXFXZXxXzXCXNXjXm.l.v.n.b.k.n.f.h.h.b.b.v.v.v.b.z.j.h.h.h.",
"b.b.b.j.b.v.v.b.x.x.x.x.n.c.b.h.e.>XkXBXFXZXFXVXFXVXSXSXFXSXFXFXFXDXDXDXFXBXDXFXFXNXkX5.a.v.c.v.v.v.v.b.j.b.n.b.z.j.j.j.j.j.j.j.",
"b.b.b.j.j.c.v.v.x.N.N.J.x.b.j.h.w.<XMXFXZXZXZXZXFXVXFXSXSXFXSXFXFXFXDXDXDXDXBXFXSXAXkX5.a.b.j.v.n.G.G.v.b.b.b.z.b.f.d.j.d.d.n.n.",
"b.b.j.h.j.v.L.b.x.t.t.y.y.j.j.g.i.1XNXFXFXZXZXZXFXFXFXSXSXSXSXFXFXFXCXDXDXDXZXVXSXAXMX5.v.j.h.d.z.t.N.l.n.b.b.b.b.z.b.f.f.z.G.H.",
"b.b.b.j.j.S.L.b.f.f.z.d.h.&.h.h.s.1XMXFXCXCXZXDXDXDXFXSXSXFXSXFXFXFXZXDXDXDXCXFXBXnXjX5.p.h.h.d.f.y.y.z.f.j.j.g.b.b.n.z.z.b.l.l.",
"b.b.b.b.c.S.P.g.j.s.j.j.b.g.c.v.a.:XkXDXDXCXFXnXDXDXDXFXFXSXSXSXFXFXZXCXCXCXBXZXnXkXfX6.D.p.c.c.n.c.c.b.c.L.a.p.b.n.v.k.z.b.z.z.",
"b.c.x.z.r.v.c.p.a.O.+.].{.{.{.{.'.*XMXmXFXDXDXDXNXNXDXDXFXFXSXFXSXFXZXDXZXZXZXFXNXkXhX).'.].[.].].].].[.].].'.+.P.v.L.v.k.z.d.z.",
"b.b.y.t.y.j.h.c.7.d 0 i s u u z 7 |.bXSXSXSXmXmXNXnXNXDXFXFXFXSXFXFXFXFXFXSXFXBXmXAXsXg C p a a a p p i i r 0 O.7.S.L.I.v.v.z.z.",
"n.b.k.t.y.h.&.p.-Xj H s s P P S z .XbXbXSXSXSXFXFXNXnXCXZXZXFXVXVXVXFXFXVXcXVXFXFXSXvX7 b U L U ! U U U ! Y C _.;Xv.c.b.s.s.j.d.",
"b.b.k.r.n.g.c.D.-Xk C Q U U U L v @XbXSXbXvXbXbXFXNXDXFXCXFXZXVXFXFXFXFXFXFXFXSXSXbXvXz F ! ! ^ ^ R ! ! ~ ) / _.7.L.v.j.&.%.h.f.",
"b.c.v.L.D.+.].[.`./ D ~ ~ U U P s ' $XiX%XyXvXbXFXDXDXCXCXZXZXFXSXFXFXDXFXSXsXyX%X%X$Xb ! Q Q L R S S R Q Y Y k `.'.+.6.b.j.h.z.",
"b.b.v.a.+.d r t c n D D Y ! ! U L L b 5 4 ~.pXvXSXFXBXzXZXZXZXVXFXFXFXFXAXbX$X3 5 r y J U Q Y ~ R R L L U Q Y H a t f /.7.v.b.v.",
"b.b.v.S.-Xj W U L G F n E K U U ! ! S n z .XsXvXFXAXZXZXxXZXZXFXDXDXFXAXSXvX$X5 F F K ^ P Q Q ! U ! L U U P U ! P L v (.7.L.n.z.",
"c.n.v.S.-Xd C a L S S S W L Q Q ! ! U S n +XiXbXSXSXSXFXFXSXFXFXFXSXSXbXbXbX%Xr F ~ ! ^ ~ ! ! U U U P ! U ! U J s y z /.7.L.b.j.",
"b.b.v.L.7.}.oXoX+Xy A L L R ^ Y ~ ^ L L ! ' #X$XiXiXiX%XiXpXpXpXpXpXiXiXiXiX#Xb K U I Q ~ T R ! P U I U U ! H C +XOXoX*X9.a.j.c.",
"b.n.r.9.M.jXDXbXaXn F ! L ! ^ Y Y Y T I J a J y e e e q q u u u u w q e w t A s P ! U K T T T ^ ~ ! ^ Q ~ ~ Y @XvXSXDXqXi.i.c.v.",
"b.n.l.N.3.jXMXAXsX9 b R P U Q K D E ^ ` ` T R S S R L U U ! U ! ! U ! U R K U ! U ! U T ` E T L I U ^ T E Y C oXSXNXkXqX0.v.c.v.",
"b.c.l.A.5.jXmXbXaXl r b Z H ! U U L K D c D D F G W ! ! U U U ! ! L R R R ! ! ! s I A K T E T ^ ! ^ R Z c c t |.bXmXMX9X4.L.b.g.",
"b.b.k.i.<.jXDXSXsX|.|..X@X/ H U U U ! R T ^ T W R R L U U U ! ! Q R R R R F T ^ Q ! R R T T H U ! U b ' @X.X|.XXbXAXNXqX4.L.b.j.",
"b.n.l.x.m.fXDXFXxXcXcXvXsX@XC I P U U ! U ! I ~ Y ! ! U U U U ! Q ! R R G F F T T L K ! J ^ Q U P T r %XcXSXbXbXFXDXDX6X9.L.b.b.",
"b.n.b.r.m.jXDXnXzXxXZXbXvXoXC Y ~ P L L P U I ~ Q ^ ! J U ! ! ! ! ! ! ! R L W ! ! U L ! J ! H ^ ! E 5 $XvXcXcXVXAXDXNX0X9.r.z.k.",
"b.b.b.g.A.jXNXNXlXCXZXSXvXoXC ) ) _ ( W ^ K ~ Y Y ~ ^ ! U U ! W Q ~ ! ! ! ! ! P P U U U ^ ` Y ~ ` ) f uXbXSXVXVXBXDXkX8X0.z.l.z.",
"b.b.b.b.A.jXDXnXnXCXCXFXSX(.6 g h m M M 7 c ' D G K ! ! ! ! ! ! R R ^ R ^ ! U I T E ( l x B x N m 7 1 rXFXZXVXZXCXDXkX8X0.k.v.c.",
"b.b.d.d.4.kXZXCXxXlXlXFXZXQ.              , M V ( S L ! Q Q ! K R G G G T T Y ) ) B m                 ^.xXDXmXDXZXCXnX7X8.k.v.v.",
"c.n.f.z.2.kXVXxXZXZXFXFXFXQ.o   X X o * . 6  XV G A L ~ Y Q Q ! L L K R W E H D D B OX> - # @         wXCXDXDXFXZXCXnXqXi.I.c.c.",
"b.b.f.w.2.jXFXFXFXSXSXbXFXQ.O @ @ O O &   6  XV _ W ^ ` ) ) ` ^ ^ ^ ^ ` ` _ E W ' ' OX> - . . o = *   tXAXAXAXDXDXDXNXqX9.p.c.g.",
"b.b.b.n.G.8XfXfXdXDXFXFXFXQ.  O O & * * O , 8 8 M B x x h h m x x x x x m m m B B m 8 > * o X X + &   tXFXFXDXkX9XfXqX5Xa.v.c.c.",
"c.b.b.c.g.u.u.#.=.gXMXZXZXQ.    O * + +       .     .             .                     X X X X O X   eXFXDXMX7X=.#.8.k.p.c.l.n.",
"b.b.v.p.v.g.j.s.9.gXkXFXFXQ.    O & O O X     O O X X     X X X   O       X X + $ & O . o   X X X X   eXFXNXjX8X1.e.b.b.b.b.n.n.",
"b.c.v.S.E.c.c.v.A.gXkXDXFXQ.  + O O &   O O O O O O .       & & O &   . .   O O O O   # . .   X X     eXDXkXgX8Xm.l.x.b.b.g.j.n.",
"b.b.b.n.b.b.b.n.i.4X2X>X9X} X X X O O         +     .   . . + & O . o #   O   O   O O # # # .         *X9X1X1X3Xm.L.z.f.f.f.b.b.",
"b.b.j.j.j.j.j.b.8.z.$.1.>X[   X O   O O . . . . . . . o . . $ + O @ o .     O O O O . . # # . . o O   &X>X2.m.A.0.k.d.j.f.j.b.b.",
"b.b.j.%.%.j.n.v.s.n.y.1.>X[   O       . o . # # .       # % @ O O O o o . . . # + . . . # # . # % *   :.B.t.G.I.k.b.b.j.d.h.j.b.",
"b.z.j.%.%.b.n.I.l.I.I.t.2X{   + .   . o . . # # .   X X . ;           ; . . # # $ .   . . . . % % +   ,.J.z.n.n.f.f.j.j.d.j.z.n.",
"b.b.z.f.d.n.c.c.k.n.n.q.4X{ . + O . . .     + + O O X X     !.).o.&X< .   . . # .   X O X o   # # *   <.J.f.f.j.d.h.h.j.d.j.b.n.",
"b.b.b.z.f.n.f.b.b.n.n.0.4X{   = @ o .   O O + & O O   O O   &X1XT.5X{   o   . .   X X X X X   + + - O <.N.k.b.b.j.j.j.j.s.b.b.v.",
"b.b.v.n.l.n.l.n.b.n.n.U.4X]   & O . % # . O + * & O + + O   <.T.q.4X]   .   X   X X X X X @ o . O &   o.3XL.n.j.j.j.j.b.c.b.v.v.",
"b.b.n.k.x.v.v.v.v.v.v.v.A.2         ; @ . . + + O O . #     -.Y.J.R.[   .     X   X X . . @            .M.S.n.j.b.b.b.c.n.n.v.n.",
"b.b.b.b.f.j.b.b.b.v.v.c.U.*.X.;.;.}       o O O O   # .   X :.J.y.Z.[   .     X O X O # . O :  .>.X.| m.J.v.c.n.v.v.v.n.v.v.v.n.",
"b.b.b.b.j.j.h.j.b.L.L.s.b.n.H.Y.=X .  +       O O   . .   X X.B.y.Z.[   .         O   # # = : 3.=XZ.B.x.e.c.b.v.b.v.v.v.v.v.v.b.",
"b.v.v.L.L.b.j.f.n.L.G.n.b.f.k.r.B.-.  *     O O O O . .     ;.V.Z.>X]   . + + O O & * % $ = : :XZ.t.G.b.j.b.b.c.v.v.v.v.c.v.n.b.",
"b.b.v.D.D.n.j.z.l.G.S.I.j.h.j.z.J.X.  .                     o.F.Z.<X<                         C.B.K.l.c.n.b.c.b.b.b.n.c.b.b.b.b.",
"b.b.v.v.n.j.j.f.x.G.G.c.s.b.n.f.z.t.X.<.;.-.,.,.,.,.-.;.-.*.A.P.L.E.,.*.-.;.:.:.=.:.:.;.;.<...K.y.I.I.v.c.j.b.b.b.b.b.b.b.b.j.j.",
"b.c.b.j.j.h.h.z.k.L.L.n.b.b.n.j.d.x.N.Y.U.U.I.n.n.J.K.K.K.L.I.b.b.n.n.L.J.K.J.x.x.x.J.R.T.K.z.b.f.b.v.v.b.b.j.j.b.b.b.j.b.j.j.b.",
"b.I.v.n.s.b.d.e.z.I.v.v.x.x.f.j.h.b.L.l.z.d.j.j.b.v.J.L.v.v.b.b.b.b.b.n.b.b.f.b.f.z.G.l.J.w.b.h.b.v.v.b.j.b.b.b.b.s.b.j.h.b.c.n.",
"k.l.L.p.u.I.z.f.U.i.H.4X2XR.R.U.U.W.3XW.R.E.U.E.E.W.4X3XW.W.W.E.W.R.E.E.E.E.E.E.E.4XW.W.E.E.U.W.W.W.4XE.U.U.K.G.I.h.n.j.$.h.b.v."
};
