/* XPM */
static char *_89e24ba46e14b11d435eaea461e0e73GTc0N2ubWfsXQhil[] = {
/* columns rows colors chars-per-pixel */
"64 64 3 1 ",
"  c black",
". c #FAF605",
"X c #53FFFF",
/* pixels */
"XXXXXXXXXXXXXXXXXXXXXXXXXXXXXXXXXXXXXXXXXXXXXXXXXXXXXXXXXXXXXXXX",
"XXXXXXXXXXXXXXXXXXXXXXXXXXXXXXXXXXXXXXXXXXXXXXXXXXXXXXXXXXXXXXXX",
"XXXXXXXXXXXXXXXXXXXXXXXXXXXXXXXXXXXXXXXXXXXXXXXXXXXXXXXXXXXXXXXX",
"XXXXXXXXXXXXXXXXXXXXXXXXXXXXXXXXXXXXXXXXXXXXXXXXXXXXXXXXXXXXXXXX",
"XXXXXXXXXXXXXXXXXXXXXXXXXXXXXXXXXXXXXXXXXXXXXXXXXXXXXXXXXXXXXXXX",
"XXXXXXXXXXXXXXXXXXXXXXXXXXXXXXXXXXXXXXXXXXXXXXXXXXXXXXXXXXXXXXXX",
"XXXXXXXXXXXXXXXXXXXXX...XXXXXXXXXXXXXXXX...XXXXXXXXXXXXXXXXXXXXX",
"XXXXXXXXXXXXXXXXXXXXX.....X          X.....XXXXXXXXXXXXXXXXXXXXX",
"XXXXXXXXXXXXXXXXXXXXX......          ......XXXXXXXXXXXXXXXXXXXXX",
"XXXXXXXXXXXXXXXXXXXXXX.....          .....XXXXXXXXXXXXXXXXXXXXXX",
"XXXXXXXXXXXXXXXXXXXXXX.....          .....XXXXXXXXXXXXXXXXXXXXXX",
"XXXXXXXXXXXXXXXX...XXXX....          ....XXXX...XXXXXXXXXXXXXXXX",
"XXXXXXXXXXXXXXXX.....X     ..........     X.....XXXXXXXXXXXXXXXX",
"XXXXXXXXXXXXXXXX......     ..........     ......XXXXXXXXXXXXXXXX",
"XXXXXXXXXXXXXXXXX.....     ..........     .....XXXXXXXXXXXXXXXXX",
"XXXXXXXXXXXXXXXXX.....     ..........     .....XXXXXXXXXXXXXXXXX",
"XXXXXXXXXXX...XXXX....     ..........     ....XXXX...XXXXXXXXXXX",
"XXXXXXXXXXX.....X     ....................     X.....XXXXXXXXXXX",
"XXXXXXXXXXX......     ....................     ......XXXXXXXXXXX",
"XXXXXXXXXXXX.....     ....................     .....XXXXXXXXXXXX",
"XXXXXXXXXXXX.....     ....................     .....XXXXXXXXXXXX",
"XXXXXXX...XXX....     ....................     ....XXX...XXXXXXX",
"XXXXXXX.....X    ..............................    X.....XXXXXXX",
"XXXXXXX......    ..............................    ......XXXXXXX",
"XXXXXXXX.....    ..............................    .....XXXXXXXX",
"XXXXXXXX.....    ..............................    .....XXXXXXXX",
"XXXXXXXXX....    ..............................    ....XXXXXXXXX",
"XXXXXXXX     ......................................     XXXXXXXX",
"XXXXXXXX     ......................................     XXXXXXXX",
"XXXXXXXX     ......................................     XXXXXXXX",
"XXXXXXXX     ......................................     XXXXXXXX",
"XXXXXXXX     ......................................     XXXXXXXX",
"XXXXXXXX     ......................................     XXXXXXXX",
"XXXXXXXX     ......................................     XXXXXXXX",
"XXXXXXXX     ......................................     XXXXXXXX",
"XXXXXXXX     ......................................     XXXXXXXX",
"XXXXXXXX     ......................................     XXXXXXXX",
"XXXXXXXXX....    ..............................    ....XXXXXXXXX",
"XXXXXXXX.....    ..............................    .....XXXXXXXX",
"XXXXXXXX.....    ..............................    .....XXXXXXXX",
"XXXXXXX......    ..............................    ......XXXXXXX",
"XXXXXXX.....X    ..............................    X.....XXXXXXX",
"XXXXXXX...XXX....     ....................     ....XXX...XXXXXXX",
"XXXXXXXXXXXX.....     ....................     .....XXXXXXXXXXXX",
"XXXXXXXXXXXX.....     ....................     .....XXXXXXXXXXXX",
"XXXXXXXXXXX......     ....................     ......XXXXXXXXXXX",
"XXXXXXXXXXX.....X     ....................     X.....XXXXXXXXXXX",
"XXXXXXXXXXX...XXXX....     ..........     ....XXXX...XXXXXXXXXXX",
"XXXXXXXXXXXXXXXXX.....     ..........     .....XXXXXXXXXXXXXXXXX",
"XXXXXXXXXXXXXXXXX.....     ..........     .....XXXXXXXXXXXXXXXXX",
"XXXXXXXXXXXXXXXX......     ..........     ......XXXXXXXXXXXXXXXX",
"XXXXXXXXXXXXXXXX.....X     ..........     X.....XXXXXXXXXXXXXXXX",
"XXXXXXXXXXXXXXXX...XXXX....          ....XXXX...XXXXXXXXXXXXXXXX",
"XXXXXXXXXXXXXXXXXXXXXX.....          .....XXXXXXXXXXXXXXXXXXXXXX",
"XXXXXXXXXXXXXXXXXXXXXX.....          .....XXXXXXXXXXXXXXXXXXXXXX",
"XXXXXXXXXXXXXXXXXXXXX......          ......XXXXXXXXXXXXXXXXXXXXX",
"XXXXXXXXXXXXXXXXXXXXX.....X          X.....XXXXXXXXXXXXXXXXXXXXX",
"XXXXXXXXXXXXXXXXXXXXX...XXXXXXXXXXXXXXXX...XXXXXXXXXXXXXXXXXXXXX",
"XXXXXXXXXXXXXXXXXXXXXXXXXXXXXXXXXXXXXXXXXXXXXXXXXXXXXXXXXXXXXXXX",
"XXXXXXXXXXXXXXXXXXXXXXXXXXXXXXXXXXXXXXXXXXXXXXXXXXXXXXXXXXXXXXXX",
"XXXXXXXXXXXXXXXXXXXXXXXXXXXXXXXXXXXXXXXXXXXXXXXXXXXXXXXXXXXXXXXX",
"XXXXXXXXXXXXXXXXXXXXXXXXXXXXXXXXXXXXXXXXXXXXXXXXXXXXXXXXXXXXXXXX",
"XXXXXXXXXXXXXXXXXXXXXXXXXXXXXXXXXXXXXXXXXXXXXXXXXXXXXXXXXXXXXXXX",
"XXXXXXXXXXXXXXXXXXXXXXXXXXXXXXXXXXXXXXXXXXXXXXXXXXXXXXXXXXXXXXXX"
};
