/* XPM */
static char *cb27daf1822b41a0a0ca46cca643567dOsG2aE03zYjeuSIH[] = {
/* columns rows colors chars-per-pixel */
"64 64 235 2 ",
"   c #010101",
".  c #0B0102",
"X  c #010B01",
"o  c #0B0B03",
"O  c #03020B",
"+  c #0A010B",
"@  c #020B0B",
"#  c #0B0B0A",
"$  c #120104",
"%  c #110A07",
"&  c #13010C",
"*  c #1B010C",
"=  c #011301",
"-  c #0A1406",
";  c #14160A",
":  c #030212",
">  c #0B0113",
",  c #020B14",
"<  c #0C0B13",
"1  c #05021B",
"2  c #0B011B",
"3  c #0B091B",
"4  c #130013",
"5  c #1B0015",
"6  c #170A15",
"7  c #13001B",
"8  c #1C011B",
"9  c #190A1D",
"0  c #1E1017",
"q  c #220016",
"w  c #23001C",
"e  c #26071C",
"r  c #002501",
"t  c #0D0123",
"y  c #160021",
"u  c #1C0023",
"i  c #1A0824",
"p  c #1E1825",
"a  c #230123",
"s  c #2A0025",
"d  c #24002A",
"f  c #2A002B",
"g  c #260B29",
"h  c #330026",
"j  c #31002E",
"k  c #3C002F",
"l  c #230031",
"z  c #2C0032",
"x  c #2B0A33",
"c  c #320333",
"v  c #36023B",
"b  c #390538",
"n  c #301730",
"m  c #44003C",
"M  c #411335",
"N  c #460046",
"B  c #6A345C",
"V  c #603B64",
"C  c #7B447A",
"Z  c #507F78",
"A  c #71756D",
"S  c #736D76",
"D  c #767678",
"F  c #757C7C",
"G  c #7A7C7B",
"H  c #88437C",
"J  c #787E80",
"K  c #8A3C89",
"L  c #8B3A93",
"P  c #933E98",
"I  c #874183",
"U  c #894383",
"Y  c #884B87",
"T  c #93428A",
"R  c #88548A",
"E  c #955388",
"W  c #8E4D91",
"Q  c #985C96",
"!  c #A75C99",
"~  c #8F6F88",
"^  c #946497",
"/  c #A8669E",
"(  c #A65BA5",
")  c #B45CA8",
"_  c #B95AB8",
"`  c #9B62A5",
"'  c #A766A8",
"]  c #B665AA",
"[  c #BC64B3",
"{  c #B769B7",
"}  c #BD63BC",
"|  c #BC6ABB",
" . c #BA71BF",
".. c #C55DB7",
"X. c #C259BC",
"o. c #C364B6",
"O. c #C26AB4",
"+. c #C464BC",
"@. c #CA64BD",
"#. c #C36ABC",
"$. c #CC69BE",
"%. c #C673B7",
"&. c #B767C5",
"*. c #BC64C3",
"=. c #BC6BC2",
"-. c #BF78C4",
";. c #C35CC1",
":. c #CC5DC6",
">. c #C45DCC",
",. c #CB5ECA",
"<. c #D25EC4",
"1. c #CA5DD1",
"2. c #DC5BD8",
"3. c #E55CD7",
"4. c #E95BDE",
"5. c #F151DE",
"6. c #C462C3",
"7. c #CB63C4",
"8. c #C46AC3",
"9. c #C362CA",
"0. c #CC65CB",
"q. c #C96CC8",
"w. c #CB6DCA",
"e. c #D366C7",
"r. c #C77AC8",
"t. c #D973CB",
"y. c #DC69DA",
"u. c #C979D3",
"i. c #D875D6",
"p. c #DB7ED3",
"a. c #DB7CDB",
"s. c #EC62DD",
"d. c #E26ADD",
"f. c #E868D9",
"g. c #EB6BDE",
"h. c #F36DDC",
"j. c #EB78D6",
"k. c #E273DD",
"l. c #EB73DD",
"z. c #E77BDB",
"x. c #E27ADC",
"c. c #DE5AE0",
"v. c #ED4DE8",
"b. c #F24DED",
"n. c #FF4CED",
"m. c #E658E6",
"M. c #EB5EE4",
"N. c #EE54EC",
"B. c #EE5CEC",
"V. c #F355E5",
"C. c #F25AE3",
"Z. c #FA59E7",
"A. c #F355ED",
"S. c #FB55ED",
"D. c #F35AEE",
"F. c #FD5CED",
"G. c #EB4CF4",
"H. c #F34DF5",
"J. c #FE4DF5",
"K. c #FF47FF",
"L. c #F44DFD",
"P. c #FE4DFD",
"I. c #EC5AF2",
"U. c #EC53FA",
"Y. c #EE5BFA",
"T. c #F455F4",
"R. c #FB53F5",
"E. c #F359F3",
"W. c #FC5CF4",
"Q. c #F554FC",
"!. c #FC52FD",
"~. c #F559FC",
"^. c #FC5BFC",
"/. c #DA6CE2",
"(. c #DE77E5",
"). c #DC7BE2",
"_. c #DB78E7",
"`. c #E563E4",
"'. c #EA64E3",
"]. c #E66DE5",
"[. c #EC6BE4",
"{. c #E467EE",
"}. c #EC66EC",
"|. c #E66CEA",
" X c #EC6BEB",
".X c #F265E5",
"XX c #F46BE5",
"oX c #F365EC",
"OX c #FA64EC",
"+X c #F46BEC",
"@X c #FA6BEC",
"#X c #E473E5",
"$X c #EC72E5",
"%X c #E37AE4",
"&X c #E97BE4",
"*X c #E475EB",
"=X c #EC72EC",
"-X c #E77BEA",
";X c #F475EA",
":X c #F27CED",
">X c #ED64F3",
",X c #EC66F7",
"<X c #E66CF2",
"1X c #EB6AF3",
"2X c #F464F4",
"3X c #FA62F4",
"4X c #F36CF3",
"5X c #F463FB",
"6X c #FC63FB",
"7X c #FB6BF8",
"8X c #E676F6",
"9X c #EC73F2",
"0X c #F173F3",
"qX c #FA71FA",
"wX c #898E8D",
"eX c #949395",
"rX c #919995",
"tX c #949799",
"yX c #93999C",
"uX c #ACB6B9",
"iX c #C083B6",
"pX c #D086D1",
"aX c #DD84D9",
"sX c #E583DE",
"dX c #DC83E3",
"fX c #E283E2",
"gX c #EC85E6",
"hX c #F187EF",
"jX c #BFC8CA",
"kX c #97E7DC",
"lX c #C9CACE",
"zX c #D5DBD9",
"xX c #D7D9DA",
"cX c #DFD6E0",
"vX c #E0D4E1",
/* pixels */
"o                                                                                                       7 2 > >               lX",
"; X   9 8 7 4 7 y y 7 8 y y u u u n   X = = - X =   g c s w 5 $ 4 5 u a 5 7 5 5 d v x     +   O .     z v a f u a u f c m s   lX",
"  5   { a.&X:X;X0X=X$X&X=X].9X#Xq.| M 5 % . $ + 8 b _ y.y.].k.z.=X X1X1X=X=X#X#Xk.q.Q     > + O . e M O.p.f.&Xz.gXx.fXi.t.C   xX",
"* 8   } `.m.N.H.R.S.A.A.A.v.A.oX+Xt.k * $ $ * & 5 N *XqX^.^.N.D.!.^.!.^.Q.E.~.T.B.d.(   + 2 6 9 6 $ h e.h.f.h.4.M.2.f.s.g.T   vX",
"  >   q.9X5X^.!.!.R.W.R.R.!.^.E.`.i.j & o X .   + f y.|.A.R.T.E.Q.P.K.P.T.T.N.A.D. X#.  O : O   O * h l.XXC.V.R.E.E.B.V..XT   xX",
"  +   | {.I.Q.!.R.R.T.E.^.^.!.B.`.a.j $ .   X X & s a.'.D.^.A.A.R.!.P.!.Q.T.T.T.A.}.8.  O : O O O 4 w l.@XA.!.^.T.!.N.A.@XT   vX",
"      O.[.V.!.!.!.R.R.R.!.!.!.T.B.%Xc + o   X   + s a.|.E.!.R.R.P.P.P.P.!.R.!.!.R.oX7.  O O @ X @ O f #X2XT.^.Q.Q.!.!.T.OXK   xX",
"      [ g.V.R.!.!.!.R.!.P.P.P.Q.B.*Xz > .     X   a a.|.T.!.!.R.P.P.P.!.Q.Q.T.!.!.F.7.    @ X X X O f $X2XT.!.P.!.!.Q.R.3XK   xX",
"      O.[.A.P.!.Q.!.Q.!.!.P.P.U.I._.z 2 :   O O   u a.|.T.!.R.R.P.P.!.!.Q.T.Q.!.R.F.e.    O X X   + f #XoXQ.!.!.!.!.Q.T.2XU   xX",
"  O   8.oXR.!.!.P.Q.Q.Q.!.!.!.Q.I.*Xv 2 + O O O O u a.|.T.^.!.!.!.P.!.!.T.E.!.!.!.OX7.        X X + f *X2X!.!.!.!.!.Q.E.oXI   zX",
"  :   6.OXS.J.!.!.R.S.R.R.!.!.T.B.%Xj & +       + a (.1XQ.!.!.R.!.!.P.!.!.Q.!.P.!.2X8.    X   X X O l _.1X~.!.!.Q.Q.Q.E.}.I   zX",
"  :   7.OXn.R.R.R.R.S.S.S.R.R.A.M.z.h $ .   X o + f (.>X!.P.P.J.P.P.P.!.Q.!.!.P.Q.}.=.      X X   O u _.<XI.Q.Q.!.!.Q.T.XXI   zX",
"  :   7.OXV.R.R.J.!.R.R.R.R.R.A.`.x.h + o     o + f #X>X!.P.P.R.R.!.R.!.T.R.!.P.Q.{.=.        X   + f _.,X~.!.!.!.!.R.T.oXU   zX",
"  1   :.OXV.T.!.P.!.!.!.P.!.!.E.`.).f >   X   O O s #X2XJ.P.!.R.R.R.T.D.D.E.!.J.Q.|.=.  . $ . . . & z *X>XR.!.J.J.P.R.Z..XU   xX",
"  2   7.oXA.I.Q.!.!.Q.!.!.P.!.I.M.).l > : O O   O f #X2XJ.^.J.P.P.!.T.D.D.A.R.!.T.|.|     . . $ $ + z #XI.!.P.K.P.J.S.Z..XH   zX",
"  2   0..XV.Y.~.Q.Q.Q.!.P.!.J.A.`.).z 2 ,   @ o   f |.E.J.^.P.P.P.P.Q.B.D.A.R.R.D.*X|   O o   $ . + l a.B.J.^.L.Q.^.V.C.h.H   jX",
"  +   +.+XR.Q.!.!.^.P.P.P.P.J.Z.4.gXz 2 ,   X     w ;X3XA.R.L.P.!.P.~.D.S.!.J.P.R..X#.  > . . $ . + u a.`.n.P.K.!.^.R.F.XXI   uX",
"      8.7X^.P.P.P.P.P.P.P.P.R.V.3.sXu 4 +   . o o 8 &X+XV.F.T.L.L.L.Q.A.R.J.P.P.n.h.e.  4 $ $ $ $ 4 d fX$Xn.J.K.P.P.L.L.4X9.  F ",
"  +   } >X!.P.P.!.!.!.!.P.J.R.C.g.gXs 7 & . . . . 4 x.].4.C.E.^.^.P.Q.D.T.!.P.!.R.OXe.  u & . $ + 1 y dXd.5.n.J.^.^.L.G.B.;.  F ",
"  >   =.0XqX6XT.E.2X5XE.~.2XoX[.i.r.f 4 O + $ $ O d a.:X[..XoX3X^.^.5XoXoX5X5X5XoXl.[   : O + & 4 1 l pX%XoXF.A.I.U.^.6X+X@.  D ",
"  +   R { 6.6._ +.} *.*.6.;.} { ' ^ g + O   . . + g ( { o.+.+.:.,.,.;.} +.;.*.>.} ] Y     @     + + g ^ u.x.l.k._./._.-Xz.!   D ",
"& < 6                                 X X X o   o                                     X X = X           q q 5 5 2 y t 7 q q   G ",
"+   @ O % $                 O       X X         . + + + O                 .   . .     = X =   X X X o                         D ",
". + O + .   o X X     O + > : + : + + + + + 4 + O O @ -         o   o   @ o # # O O O @ @ X X . . @ O + + + + O O @ , @       A ",
"& + O a 8 5 * 5 & 4 8 8 y u y y 7 8 8 8 w a u u y i O @ @ - ; o o   i 8 7 2 2 7 y y y 2 7 7 7 7 7 7 8 u                       D ",
"  +   ` i.(.].].=X+X+X4X4X9X9X*X=X#X$X$X[.$X=X%X).-.x   : : O O +   ` u.dX-X*X9X4X@X+X=X=X9X=X X=X9X=X=X:.,.e.7.9.*.&.} [ E   G ",
"  O   8.qX6X^.K.!.!.!.P.P.!.~.E.E.A.F.S.S.W.I.I.}.fXy   : 3 3 9 7   q.8X,X5XU.H.J.J.J.J.!.Q.Q.Q.Q.!.Q.!.W.W.W.W.6X5X,X2X;X+.  G ",
"  O   8.B.H.P.P.P.K.K.P.K.P.!.T.S.S.S.n.n.R.I.I.c.fX>   , : O O 5   q.<XG.G.L.!.P.P.J.J.P.Q.Q.Q.Q.Q.J.R.R.!.R.J.R.K.L.Q.OX7.  D ",
"  #   w.OXT.!.^.P.P.P.P.P.P.!.R.R.R.J.J.J.!.Q.Y.B.hX>   @ O   # &   q.4XY.Q.!.P.P.!.!.!.!.!.!.!.Q.!.!.^.!.R.!.!.!.P.P.^.}.;.  D ",
"  +   q.@XT.Q.Q.E.!.R.!.P.J.T.T.S.R.J.J.J.P.Q.Q.H.:X5   , O O . $   w.|.m.~.J.J.J.R.R.!.P.!.!.!.!.P.P.J.R.!.!.!.!.!.!.W.'.+.  F ",
"  :   7..XV.I.Y.I.Y.T.R.!.~.E.~.T.!.J.P.P.P.Q.Q.P.qXw   @           *.|.B.~.!.J.R.T.~.!.!.!.!.P.!.P.J.!.!.R.Q.Q.Q.^.A.5.g.[   J ",
"  O   @.OXT.Q.Q.I.I.T.!.!.Q.Q.!.!.!.!.P.P.P.!.Q.!.=X8     O         8.,XQ.!.!.J.R.Q.Q.Q.!.Q.!.J.!.J.!.J.!.!.Q.Q.!.!.b.V.XX+.  wX",
"      @.OX!.P.Q.T.E.T.!.!.P.!.P.L.!.P.!.Q.!.!.T.Q.8X7     . . O     9.5XQ.Q.!.H.R.!.Q.!.E.!.!.R.R.R.J.J.P.!.P.P.P.P.!.R.}.7.  yX",
"      7.OXR.Q.!.R.R.R.!.!.!.!.!.!.!.!.!.R.R.R.!.Q.9Xu   . $ . +     *.2XQ.Q.!.T.R.!.!.Q.Q.R.R.J.R.J.J.J.J.P.!.!.!.!.!.R..X$.  yX",
"  O   8.+XT.Q.!.!.R.J.!.!.J.!.!.!.!.!.!.!.J.!.!.!.4Xa   . $ +       6.2X~.!.!.D.R.Q.!.Q.R.!.R.R.R.J.!.R.R.R.R.T.T.T.D.C.f.O.  tX",
"      o.XXA.Q.!.J.J.!.J.P.P.P.!.P.!.P.!.!.!.!.!.!.4Xw   . .   o     +.OXT.Q.^.V.T.Q.!.!.!.!.!.!.J.R.!.!.R.R.E.T.T.E.D.C.h.O.  tX",
"      +.[.V.Q.!.P.K.P.P.P.P.P.!.!.!.!.P.P.P.P.P.R.$Xw     .   X     @.OXR.R.R.S.R.!.P.!.!.!.P.Q.!.Q.Q.Q.Q.Q.~.E.I.~.T.M.f.O.  rX",
"      o..XA.P.P.P.P.P.J.R.!.!.T.!.Q.Q.!.!.P.!.!.S.$Xw   X O         @.OXR.J.J.J.J.P.P.P.P.P.Q.!.Q.Q.Q.Q.Q.Q.Q.R.!.Q.Q.~.XXO.  rX",
"  O   #..XJ.K.P.!.R.!.R.D.D.D.E.D.E.E.T.~.Q.!.W.V.j.w   # O O O +   e.W.J.P.P.P.P.J.J.J.J.!.!.!.Q.Q.Q.!.!.R.J.J.J.K.!.!.5X0.  rX",
"  +   #.}.J.P.P.R.R.T.T.T.T.D.A.E.E.T.R.R.!.J.R.4.sXw   1 : O : 4   :.oXJ.H.P.P.!.!.!.J.J.J.!.J.!.!.Q.^.R.!.J.J.J.K.L.!.3X0.  tX",
"  ,   { -X2XW.W.3X5XE.3X2X2X2XOX3XOXW.6XW.6XR.6X].aX8   1 1 : 1 >   } $X+X4X1X,X,X5X3XW.6XW.^.^.^.^.~.~.!.^.P.P.K.P.~.D.XX..  eX",
"  O   R | 6.X.;.>.9.9.9.9.;.7.;._ X.X.7.<.<.:.7.[ Q a   : , , @ O   Y ( O.#.8.=.*.&.*.6.0.0.e.1.,.0.>.>.{.,X>X2XqX9X&Xz.p./   eX",
"O @   a d q 8 8 2 7 2 7 4 4 7 5 a q 5 8 5 5 8 5 s s & # , , , X X   g e 5 & & 4 2 t t 1 4 5 5 q 5 8 7 y L L L L P W K U H B   eX",
"    # > > + +     O   O O O O O O   O #     o   O O # . O O O X X X o         # @ O @ @ # . . $   o X                         eX",
".   o + + + O   O O O : : > > > 2 + +     X X   # O     > 7 4 . . o . + % o o O : 1 > : + . $ . . o   X X = @ @ O @     $ .   wX",
"$ $   8 w 7 7 5 7 4 8 y u a u u a y y > > p O     o & & 5 a s s w s u 7 4 * 5 u l u u u q q e   . X = X = @ O                 rX",
"  .   ' a.#X}.[.h.l.l.XXXXXX@X+X[.d.&XaXr.r.c a 4 x iXpXa.*X+X[..X+X8X8X-X&X#X1X<X>X`.&Xa.r./   7 : O O O >   E ] { *.>.o.E   rX",
"  4   | ;X6XR.!.Z.Z.Z.S.R.R.R.R.W.A.D.s.y.sXj u 8 5 aXx.m.T.W.R.R.R.~.U.E.D.T.^.!.^.T.W.'.#X .  1 : : : > 6   %.z.{.,X2XXXo.  wX",
"  :   #.+XS.R.!.S.R.R.D.S.S.S.R.R.R.R.A.`.x.c 7 4 a a.[.N.!.R.S.R.R.T.E.B.E.!.!.P.^.J.R.B.|.=.  > + + + 4 >   #.$XI.Q.T.OX@.  G ",
"  O   +.OXS.J.J.J.J.Q.~.T.S.Z.R.!.J.!.R.D.i.f > + f #X XT.P.R.R.S.R.T.T.T.T.R.P.P.R.J.J.R.1X&.  O . . . +     | |.T.H.b.XXo.  G ",
"  :   8.oXJ.J.P.P.P.!.Q.R.R.R.R.!.P.P.P.oX#Xf > > f #X1X!.P.J.J.R.!.!.!.T.!.!.P.P.!.R.!.E.<X&.  O . .   o     =.1XQ.L.T.XX#.  F ",
"  :   6.oX~.Q.P.P.!.!.!.!.R.R.!.!.P.P.!.D.a.f > + f *X1X!.P.P.R.J.!.P.^.!.E.!.P.!.U.T.!.Y.<X&.  O X X         | }.~.Q.T.XXo.  G ",
"  O   +.OXT.Q.P.^.!.Q.Q.^.R.R.J.!.!.!.!.`.a.a O O a a.|.~.!.!.R.!.P.!.!.Q.E.^.!.P.!.P.!.R.1X*.    X     X     7.2X!.U.T.XX[   F ",
"      +.+XR.Q.Q.!.!.Q.Q.!.!.R.!.!.!.!.T.'.p.w O   w a.].E.!.R.R.^.P.!.!.T.T.Q.!.!.!.!.P.J.2X6.  + o   o .   . <.F.!.L.T.XX}   G ",
"      o.XX~.U.Q.!.T.Q.Q.!.J.J.!.!.P.!.T.'.p.a +   w a.].B.R.!.W.P.P.!.!.T.T.Q.!.P.!.P.!.R.2X6.  +   X   .     @.F.^.Q.Q.+Xo.  G ",
"  o   |  XY.U.Q.J.R.Q.!.P.P.J.!.^.!.!.A.s.p.f + & s a.].N.!.W.!.P.P.P.P.!.T.T.J.!.^.!.P.R.2X6.  +   X @ @ O   <.F.P.Q.T.+X+.  F ",
"  o   #.|.T.L.!.T.T.Q.!.!.P.!.!.!.!.!.A.s.p.s 4 & s x.[.A.R.R.R.!.P.P.P.!.T.T.R.!.Q.!.!.T.XX6.  + @ @ @ , O   @.oX!.H.T..X+.  G ",
"  $   e.OXJ.P.P.R.T.Q.Q.!.!.!.R.T.E.T.V.[.x.a 5 4 w a.=XB.A.D.A.!.!.!.!.!.E.E.R.!.T.!.T.A.4X+.  4 , , O , :   q.4XT.G.v.4...  ~ ",
"  4   7.7XR.J.J.S.T.Q.Q.P.J.J.R.~.~.H.v.oXk.c a 5 c #X4XE.T.D.D.R.P.P.P.T.T.N.T.T.A.A.m.M.;X+.  4 O , : , 3   | ].I.E.3X;X$.  D ",
"  7   } 4X2XD.6X2X5X5X~.6X6X6X2X>X7X6X7X@Xk.v a a v (.4X6X3X2XoX3X6X^.6X5X5X2X2XoX[.g.].].l.o.  & + > O : O   { %X/.y.d.h.)   S ",
"  O   Y *.q.w.0.6.9.9.>.1.,.7.9.8.8.0.0.o.( x 9 9 x ( _ ;.0.8.#.7.>.1.>.9.6.6.9.6.@.#.} [ ] Y   & O O O + +   ` u.dXfXsXt.!   S ",
"= = X i 8 5 q & 5 5 y y u 8 5 * 4 4 8 a w n   = X   n f s q 4 $ 4 8 a u 5 7 5 5 8 a d d l b b     O O , :     V C Y Y U H B   S ",
"r = X o   . ; -     O O O     X X X . + . % = r r = 6 > + . X X X O O O         + & 7 1 2 7 8   o     < + - X :         $ w   D ",
"kXZ   i 7 + X   + O : > > + X   X @ + 9 4 < X X = X 3 7 7 4 X X X O : > + O O + + O O : , > # o X - # 6 . X X O 3 1 < > & 0   wX"
};
